<?xml version="1.0" encoding="UTF-8"?>
<svg width="33px" height="33px" viewBox="0 0 33 33" version="1.1" xmlns="http://www.w3.org/2000/svg" xmlns:xlink="http://www.w3.org/1999/xlink">
    <!-- Generator: Sketch 42 (36781) - http://www.bohemiancoding.com/sketch -->
    <title>待补全@1x</title>
    <desc>Created with Sketch.</desc>
    <defs>
        <rect id="path-1" x="240" y="64" width="432" height="960"></rect>
        <filter x="-50%" y="-50%" width="200%" height="200%" filterUnits="objectBoundingBox" id="filter-2">
            <feOffset dx="0" dy="1" in="SourceAlpha" result="shadowOffsetOuter1"></feOffset>
            <feGaussianBlur stdDeviation="2" in="shadowOffsetOuter1" result="shadowBlurOuter1"></feGaussianBlur>
            <feColorMatrix values="0 0 0 0 0   0 0 0 0 0   0 0 0 0 0  0 0 0 0.5 0" type="matrix" in="shadowBlurOuter1"></feColorMatrix>
        </filter>
        <rect id="path-3" x="0" y="3" width="44" height="44" rx="3"></rect>
        <mask id="mask-4" maskContentUnits="userSpaceOnUse" maskUnits="objectBoundingBox" x="0" y="0" width="44" height="44" fill="white">
            <use xlink:href="#path-3"></use>
        </mask>
    </defs>
    <g id="门店管理（管理员）" stroke="none" stroke-width="1" fill="none" fill-rule="evenodd">
        <g id="0.门店管理（管理员）" transform="translate(-269.000000, -610.000000)">
            <g id="border" opacity="0.900000036">
                <use fill="black" fill-opacity="1" filter="url(#filter-2)" xlink:href="#path-1"></use>
                <use fill="#FFFFFF" fill-rule="evenodd" xlink:href="#path-1"></use>
            </g>
            <g id="Group" transform="translate(263.000000, 602.000000)">
                <use id="Rectangle-5" stroke="#E0E0E0" mask="url(#mask-4)" stroke-width="2" fill="#FFFFFF" xlink:href="#path-3"></use>
                <g id="shop" transform="translate(6.000000, 0.000000)">
                    <rect id="Rectangle-path" fill="#6CC0EA" x="10.9761094" y="13.0179818" width="20.5890996" height="22.2224722"></rect>
                    <g id="Group" transform="translate(1.417969, 12.959180)">
                        <rect id="Rectangle-path" fill="#44AADD" x="9.55814063" y="22.2813384" width="20.5890996" height="5.73480869"></rect>
                        <rect id="Rectangle-path" fill="#44AADD" x="0.0168222656" y="0.0588017063" width="9.54131836" height="11.182951"></rect>
                        <rect id="Rectangle-4" fill="#FFFFFF" x="14.6194144" y="15.7043713" width="10.1775701" height="12.3364486"></rect>
                        <rect id="Rectangle-4" fill="#FFFFFF" x="14.6194144" y="11.3866143" width="10.1775701" height="2.77570093"></rect>
                    </g>
                    <rect id="Rectangle-path" fill="#0297CF" x="1.43479102" y="24.2009328" width="9.54131836" height="16.7743943"></rect>
                    <path d="M10.9761094,13.0179818 C10.9761094,16.0664606 13.4492402,18.5377424 16.5,18.5377424 L17.934791,11.5842635 L10.9761094,13.0179818 Z" id="Shape" fill="#FFB767"></path>
                    <path d="M16.5,11.5842635 L16.5,18.5377424 C19.5507598,18.5377424 22.0238906,16.0664606 22.0238906,13.0179818 L16.5,11.5842635 Z" id="Shape" fill="#FFA642"></path>
                    <path d="M5.52389062,18.5377424 C8.57465039,18.5377424 11.0477812,16.0664606 11.0477812,13.0179818 L5.52389062,11.5842635 L0,13.0179818 C0,16.0664606 2.47313086,18.5377424 5.52389062,18.5377424 Z" id="Shape" fill="#FDD8AF"></path>
                    <path d="M21.9521543,13.0179818 C21.9521543,16.0664606 24.4252852,18.5377424 27.4760449,18.5377424 C30.5268047,18.5377424 33,16.0664606 33,13.0179818 L27.4761094,11.5842635 L21.9521543,13.0179818 Z" id="Shape" fill="#FFB767"></path>
                    <polygon id="Shape" fill="#FDD8AF" points="31.565209 8 16.5 8 16.5 13.0179818 33 13.0179818"></polygon>
                    <polygon id="Shape" fill="#FFCD94" points="1.43479102 8 0 13.0179818 16.5 13.0179818 16.5 8"></polygon>
                    <polygon id="Rectangle-12" fill="#E75040" transform="translate(24.814483, 15.568923) rotate(43.000000) translate(-24.814483, -15.568923) " points="20.4230173 9.34902768 29.0110719 9.40615703 40.55809 21.788818 9.07087557 19.9350711"></polygon>
                    <path d="M17.0207224,13.8968544 L17.3987224,14.0708544 C17.0867224,14.7308544 16.5887224,15.3188544 15.8927224,15.8288544 L15.7667224,15.4148544 C16.3427224,14.9708544 16.7567224,14.4668544 17.0207224,13.8968544 Z M17.2427224,15.2768544 L17.6147224,15.4508544 C17.4707224,15.7748544 17.2907224,16.0808544 17.0747224,16.3688544 L17.0747224,19.4048544 L16.6607224,19.4048544 L16.6607224,16.8488544 C16.4447224,17.0768544 16.2047224,17.2868544 15.9467224,17.4848544 L15.8207224,17.0708544 C16.4687224,16.5488544 16.9427224,15.9488544 17.2427224,15.2768544 Z M19.2647224,13.9208544 L19.2647224,14.5748544 L17.9267224,14.5748544 L17.9267224,14.9648544 L19.2647224,14.9648544 L19.2647224,15.7148544 L17.6987224,15.7148544 L17.6987224,16.1108544 L21.2747224,16.1108544 L21.2747224,15.7148544 L19.6787224,15.7148544 L19.6787224,14.9648544 L21.0287224,14.9648544 L21.0287224,14.5748544 L19.6787224,14.5748544 L19.6787224,13.9208544 L19.2647224,13.9208544 Z M17.7287224,16.8428544 L20.0567224,16.8428544 L20.0567224,16.3988544 L20.4887224,16.3988544 L20.4887224,16.8428544 L21.1907224,16.8428544 L21.1907224,17.2448544 L20.4887224,17.2448544 L20.4887224,18.7868544 C20.4887224,19.1768544 20.2907224,19.3748544 19.9067224,19.3748544 L19.0547224,19.3748544 L18.9587224,18.9608544 C19.2347224,18.9788544 19.5047224,18.9908544 19.7567224,18.9908544 C19.9547224,18.9908544 20.0567224,18.8828544 20.0567224,18.6788544 L20.0567224,17.2448544 L17.7287224,17.2448544 L17.7287224,16.8428544 Z M18.4367224,17.4788544 C18.7727224,17.8208544 19.0307224,18.1208544 19.2107224,18.3728544 L18.8747224,18.6128544 C18.6827224,18.3368544 18.4247224,18.0248544 18.1007224,17.6888544 L18.4367224,17.4788544 Z M22.9547224,16.9148544 L22.9547224,19.4408544 L23.3747224,19.4408544 L23.3747224,16.9328544 C23.6747224,17.1848544 23.9687224,17.4848544 24.2627224,17.8448544 L24.5027224,17.4728544 C24.3347224,17.3048544 24.1607224,17.1428544 23.9747224,16.9868544 C24.1667224,16.8548544 24.3467224,16.6748544 24.5087224,16.4588544 L24.2507224,16.2068544 C24.0767224,16.4528544 23.8907224,16.6388544 23.6987224,16.7648544 C23.5907224,16.6868544 23.4827224,16.6088544 23.3747224,16.5368544 L23.3747224,16.4348544 C23.6927224,16.0328544 23.9267224,15.6308544 24.0767224,15.2228544 L24.0767224,14.8688544 L23.2367224,14.8688544 L23.4467224,14.7848544 C23.3627224,14.5268544 23.2487224,14.2388544 23.0987224,13.9268544 L22.6787224,14.0408544 C22.8227224,14.3048544 22.9427224,14.5808544 23.0447224,14.8688544 L22.0667224,14.8688544 L22.0667224,15.2648544 L23.6507224,15.2648544 C23.3627224,15.9248544 22.7807224,16.6088544 21.9047224,17.3108544 L22.0307224,17.7428544 C22.3787224,17.4668544 22.6847224,17.1908544 22.9547224,16.9148544 Z M25.3127224,13.9448544 L25.3127224,19.4288544 L25.7387224,19.4288544 L25.7387224,16.3628544 C26.1287224,16.6388544 26.6087224,17.0348544 27.1727224,17.5388544 L27.4307224,17.1668544 C26.8547224,16.6988544 26.2907224,16.2788544 25.7387224,15.9188544 L25.7387224,13.9448544 L25.3127224,13.9448544 Z M30.6467224,13.9508544 L30.9587224,13.9508544 C31.7147224,14.7428544 32.5847224,15.3608544 33.5687224,15.8168544 L33.3527224,16.2008544 C32.3567224,15.7208544 31.5107224,15.1028544 30.8027224,14.3408544 C30.1487224,15.0668544 29.2907224,15.6968544 28.2287224,16.2308544 L28.0187224,15.8528544 C29.0747224,15.3428544 29.9507224,14.7068544 30.6467224,13.9508544 Z M29.1287224,15.8468544 L32.4767224,15.8468544 L32.4767224,16.2608544 L31.0247224,16.2608544 L31.0247224,17.3048544 L32.7587224,17.3048544 L32.7587224,17.7188544 L31.0247224,17.7188544 L31.0247224,18.8288544 L33.3047224,18.8288544 L33.3047224,19.2548544 L28.3067224,19.2548544 L28.3067224,18.8288544 L30.5807224,18.8288544 L30.5807224,17.7188544 L28.8407224,17.7188544 L28.8407224,17.3048544 L30.5807224,17.3048544 L30.5807224,16.2608544 L29.1287224,16.2608544 L29.1287224,15.8468544 Z" id="待补全" fill="#FFFFFF" transform="translate(24.667722, 16.668854) rotate(47.000000) translate(-24.667722, -16.668854) "></path>
                </g>
            </g>
        </g>
    </g>
</svg>