<svg enable-background="new 0 0 48 1601" height="1601" viewBox="0 0 48 1601" width="48" xmlns="http://www.w3.org/2000/svg" xmlns:xlink="http://www.w3.org/1999/xlink"><mask id="a" height="18" maskUnits="userSpaceOnUse" width="18" x="-1" y="-1"><path d="m3 0h10c1.7 0 3 1.3 3 3v10c0 1.7-1.3 3-3 3h-10c-1.7 0-3-1.3-3-3v-10c0-1.7 1.3-3 3-3z" fill="#fff"/></mask><mask id="b" height="18" maskUnits="userSpaceOnUse" width="18" x="-1" y="-1"><path d="m3 0h10c1.7 0 3 1.3 3 3v10c0 1.7-1.3 3-3 3h-10c-1.7 0-3-1.3-3-3v-10c0-1.7 1.3-3 3-3z" fill="#fff"/></mask><mask id="c" height="18" maskUnits="userSpaceOnUse" width="18" x="-1" y="-1"><path d="m3 0h10c1.7 0 3 1.3 3 3v10c0 1.7-1.3 3-3 3h-10c-1.7 0-3-1.3-3-3v-10c0-1.7 1.3-3 3-3z" fill="#fff"/></mask><mask id="d" height="20" maskUnits="userSpaceOnUse" width="20" x="-1" y="-1"><path d="m9 0c5 0 9 4 9 9 0 5-4 9-9 9-5 0-9-4-9-9 0-5 4-9 9-9z" fill="#fff"/></mask><mask id="e" height="20" maskUnits="userSpaceOnUse" width="20" x="-1" y="-1"><path d="m9 0c5 0 9 4 9 9 0 5-4 9-9 9-5 0-9-4-9-9 0-5 4-9 9-9z" fill="#fff"/></mask><mask id="f" height="9" maskUnits="userSpaceOnUse" width="11.1" x="-1" y="-1"><path d="m0 0v6.6c0 .2.1.4.3.4h1.5 2.1 5c.1 0 .2-.2.2-.4v-6.6z" fill="#fff"/></mask><mask id="g" height="5.2" maskUnits="userSpaceOnUse" width="13" x="-1" y="-1"><path d="m11 4c0-.1 0-.1 0-.2l-1.7-3.6c0-.1-.1-.2-.2-.2h-7.2c-.1 0-.2.1-.2.2l-1.7 3.6v.2" fill="#fff"/></mask><mask id="h" height="9" maskUnits="userSpaceOnUse" width="11.1" x="-1" y="-1"><path d="m0 0v6.6c0 .2.1.4.3.4h1.5 2.1 5c.1 0 .2-.2.2-.4v-6.6z" fill="#fff"/></mask><mask id="i" height="5.2" maskUnits="userSpaceOnUse" width="13" x="-1" y="-1"><path d="m11 4c0-.1 0-.1 0-.2l-1.7-3.6c0-.1-.1-.2-.2-.2h-7.2c-.1 0-.2.1-.2.2l-1.7 3.6v.2" fill="#fff"/></mask><path d="m6.4 48.7c0 1.1 1 2 2.2 2s2.2-.9 2.2-2-1-2-2.2-2-2.2.9-2.2 2zm3.1 0c0 .5-.4.9-.9.9s-.9-.4-.9-.9.4-.9.9-.9c.5.1.9.5.9.9zm-.9 2.5c-1.2 0-2.2.5-2.9 1.5-.5.7-.8 1.7-.9 2.9 0 .3.2.6.6.6.3 0 .6-.2.6-.5.2-2.2 1.1-3.4 2.6-3.4s2.3 1.1 2.6 3.4c0 .3.3.5.6.5h.1c.3 0 .6-.3.6-.6-.1-1.2-.4-2.2-.9-2.9-.8-1-1.8-1.5-3-1.5zm1-8.2c-.3 0-.6.3-.6.6s.3.6.6.6h4.7c.8 0 1.4.6 1.4 1.3v12.7c0 .7-.6 1.3-1.4 1.3h-11.7c-.8 0-1.4-.6-1.4-1.3v-12.8c0-.7.6-1.3 1.4-1.3h4.7c.3 0 .6-.3.6-.6s-.2-.5-.6-.5h-4.7c-1.4 0-2.6 1.1-2.6 2.4v12.7c0 1.3 1.2 2.4 2.6 2.4h11.7c1.5 0 2.6-1.1 2.6-2.4v-12.7c0-1.3-1.2-2.4-2.6-2.4zm8.9 2.5c-.3 0-.6.3-.6.6s.3.6.6.6h1.3c.8 0 1.4.6 1.4 1.3v12.7c0 .7-.6 1.3-1.4 1.3h-11.7c-.8 0-1.5 1.2 0 1.2h11.7c1.5 0 2.6-1.1 2.6-2.4v-12.9c0-.2 0-.5-.1-.7-.3-1-1.3-1.7-2.5-1.7z" fill="#888"/><path d="m9.2 77.1 2.6 1.8c.1.1.2.1.4.1s.3 0 .4-.1l2.6-1.8c.2-.1.3-.3.3-.5v-3.1c0-.3-.3-.6-.6-.6h-5.3c-.3 0-.6.3-.6.6v3.1c-.1.3 0 .4.2.5zm1-2.9h4v2.2l-2 1.4-2-1.4zm11.6 1.2h-4.7c-.3 0-.6.3-.6.6s.3.6.6.6h4.7c.8 0 1.4.6 1.4 1.3v12.7c0 .7-.6 1.3-1.4 1.3h-19.2c-.8 0-1.4-.6-1.4-1.3v-12.7c0-.7.6-1.3 1.4-1.3h4.7c.3 0 .6-.3.6-.6s-.3-.6-.6-.6h-4.7c-1.5 0-2.6 1.1-2.6 2.4v12.7c0 1.4 1.2 2.5 2.6 2.5h19.2c1.5 0 2.6-1.1 2.6-2.4v-12.7c0-1.4-1.2-2.5-2.6-2.5zm-17.2 6.1c0 1.1 1 2 2.2 2s2.2-.9 2.2-2-1-2-2.2-2-2.2.9-2.2 2zm3.1 0c0 .5-.4.9-.9.9s-.9-.4-.9-.9.4-.9.9-.9.9.4.9.9zm-.9 2.4c-1.2 0-2.2.5-2.9 1.5-.5.7-.8 1.7-.9 2.9 0 .3.2.6.6.6s.6-.2.7-.5c.1-2.2 1-3.4 2.5-3.4s2.3 1.1 2.6 3.4c0 .3.3.5.6.5h.1c.3 0 .6-.3.6-.6-.1-1.2-.4-2.2-.9-2.9-.8-1-1.8-1.5-3-1.5zm13.2-3.4h-7c-.3 0-.6.3-.6.6s.3.6.6.6h7c.3 0 .6-.3.6-.6s-.3-.6-.6-.6zm.6 4.7c0-.3-.3-.6-.6-.6h-7c-.3 0-.6.3-.6.6s.3.6.6.6h7c.3 0 .6-.3.6-.6zm-7.6 1.5c-.3 0-.6.3-.6.6s.3.6.6.6h3.5c.3 0 .6-.3.6-.6s-.3-.6-.6-.6zm7-4.1h-7c-.3 0-.6.3-.6.6s.3.6.6.6h7c.3 0 .6-.3.6-.6s-.3-.6-.6-.6z" fill="#888"/><path d="m5.4 111.1c0-.3-.2-.5-.5-.5h-4.4c-.3 0-.5.2-.5.5s.2.5.5.5h4.3c.3 0 .6-.2.6-.5zm11.8-.5h-4.3c-.3 0-.5.2-.5.5s.2.5.5.5h4.3c.3 0 .5-.2.5-.5s-.2-.5-.5-.5zm-8.3-2.6c.3 0 .5-.2.5-.5v-4c0-.3-.2-.5-.5-.5s-.5.2-.5.5v4c-.1.2.2.5.5.5zm2.8 1c.1 0 .3 0 .4-.1l3.1-2.8c.2-.2.2-.5 0-.7s-.6-.2-.8 0l-3.1 2.8c-.2.2-.2.5 0 .7.1.1.3.1.4.1zm-6.1-.1c.1.1.3.1.4.1s.3 0 .4-.1c.2-.2.2-.5 0-.7l-3.1-2.8c-.2-.2-.6-.2-.8 0s-.2.5 0 .7zm9.7 5.4c-.4-.3-.9-.5-1.4-.5h-.5-1.8-.8v-2c0-1-.3-1.7-.9-2.1-1-.7-2.3-.3-2.3-.3-.2.1-.4.3-.4.5v2.4c0 .7-.4 1.4-1.1 1.9-.6.4-1.2.6-1.2.6h-.1c-.2-.2-.5-.3-.8-.3h-2c-.6 0-1.1.5-1.1 1v6.2c0 .6.5 1 1.1 1h2.1c.3 0 .5-.1.7-.2.4.4 1 .6 1.6.6h2 .2 4.2c.6 0 1.2-.1 1.7-.4.6-.3.9-.9 1-1.6l.8-4.7c-.1-.9-.4-1.7-1-2.1zm-11.4 7.3h-2.1v-6.2h2.1zm11.1-5.5-.8 4.7c0 .3-.2 1.1-1.6 1.1h-4.2-.2-2c-.6 0-1.1-.4-1.2-.9 0 0 0 0 0-.1v-5.3s.8-.2 1.6-.7c1.1-.7 1.6-1.6 1.6-2.7v-2c.3 0 .7 0 1 .2s.5.6.5 1.3v2.5c0 .3.2.5.5.5h1.4 1.8.5c.3 0 .5.1.7.3.3.3.5.7.4 1.1z" fill="#888"/><path d="m19 141.7c0-4.8-4.3-8.7-9.5-8.7s-9.5 3.9-9.5 8.7 4.3 8.7 9.5 8.7c.1 0 .3-.1.4-.1.1-.1.2-.2.2-.4v-7.7h8.4c.3 0 .5-.2.5-.5zm-9.5-.5c-.3 0-.5.2-.5.5v7.7c-4.4-.3-7.9-3.6-7.9-7.7 0-4.3 3.8-7.7 8.4-7.7 4.5 0 8.1 3.2 8.4 7.2zm11.7 2.5h-9c-.3 0-.5.2-.5.5v8.2c0 .3.2.5.5.5 2.5 0 4.9-.9 6.7-2.6 1.8-1.6 2.8-3.8 2.8-6.2.1-.1-.1-.4-.5-.4zm-8.4 8.2v-7.2h7.9c-.3 3.9-3.7 7-7.9 7.2z" fill="#888"/><path d="m17.7 173.9h-3.4c-.9 0-1.7.7-1.7 1.5v2.4c0 .8.8 1.5 1.7 1.5h3.4c.9 0 1.7-.7 1.7-1.5v-2.4c0-.8-.7-1.5-1.7-1.5zm7.3-4.4c0-.1 0-.2-.1-.3l-3.7-6c-.1-.2-.3-.3-.5-.3h-16.4c-.2 0-.4.1-.5.3l-3.7 6c-.1.1-.1.2-.1.3 0 1.3.9 2.5 2.1 3v9.9c0 .3.3.6.6.6h3.4 4.7 11.3c.3 0 .6-.3.6-.6v-9.8s0 0 0-.1c1.4-.5 2.3-1.6 2.3-3zm-20.3-5.4h15.6l2.9 4.7h-21.4zm13.1 5.8c-.2 1-1.2 1.8-2.3 1.8s-2.1-.8-2.3-1.8zm-6 0c-.2 1-1.2 1.8-2.3 1.8s-2.1-.8-2.3-1.8zm-10.5 0h4.6c-.2 1-1.2 1.8-2.3 1.8-1.2 0-2.1-.8-2.3-1.8zm9 11.9h-3.5v-6c0-.4.4-.8.9-.8h1.8c.5 0 .9.4.9.8zm7.9-4c0 .2-.2.4-.5.4h-3.4c-.3 0-.5-.2-.5-.4v-2.4c0-.2.2-.4.5-.4h3.4c.3 0 .5.2.5.4zm3.4 4h-10.1v-6c0-1.1-.9-1.9-2.1-1.9h-1.8c-1.2 0-2.1.9-2.1 1.9v6.1h-2.1v-9h.2c1.2 0 2.3-.6 3-1.4.6.9 1.7 1.4 3 1.4s2.3-.6 3-1.4c.6.9 1.7 1.4 3 1.4 1.2 0 2.3-.6 3-1.4.6.9 1.7 1.4 3 1.4h.2v8.9zm-.2-10.1c-1.2 0-2.1-.8-2.3-1.8h4.6c-.2 1-1.2 1.8-2.3 1.8z" fill="#888"/><path d="m21 195.9h-5.6v-1.4c0-.9-.8-1.5-1.7-1.5h-12c-.9 0-1.7.7-1.7 1.5v16.9c0 .9.8 1.5 1.7 1.5h12c.9 0 1.7-.7 1.7-1.5v-2.1h5.6c.9 0 1.7-.7 1.7-1.5v-10.3c0-.9-.8-1.6-1.7-1.6zm-1.7 1.1v11.3h-1.1v-11.3zm-5.1 14.4c0 .3-.2.5-.6.5h-12c-.3 0-.6-.2-.6-.5v-16.9c0-.3.2-.5.6-.5h12c.3 0 .6.2.6.5zm1.2-14.4h1.7v11.3h-1.7zm6.1 10.8c0 .3-.2.5-.6.5h-.5v-11.3h.6c.3 0 .6.2.6.5v10.3zm-17.1-5.6h6.5c.8 0 1.4-.6 1.4-1.3v-3.9c0-.7-.6-1.3-1.4-1.3h-6.5c-.8 0-1.4.6-1.4 1.3v3.9c0 .8.6 1.3 1.4 1.3zm-.3-5.1c0-.2.1-.3.3-.3h6.5c.2 0 .3.1.3.3v3.9c0 .2-.1.3-.3.3h-6.5c-.2 0-.3-.1-.3-.3zm.2 7.3h-.7c-.3 0-.6.2-.6.5s.3.5.6.5h.7c.3 0 .6-.2.6-.5s-.3-.5-.6-.5zm3.8 0h-.8c-.3 0-.6.2-.6.5s.3.5.6.5h.7c.3 0 .6-.2.6-.5s-.2-.5-.5-.5zm3.7 0h-.7c-.3 0-.6.2-.6.5s.3.5.6.5h.7c.3 0 .6-.2.6-.5s-.3-.5-.6-.5zm-7.5 2.3h-.7c-.3 0-.6.2-.6.5s.3.5.6.5h.7c.3 0 .6-.2.6-.5 0-.2-.3-.5-.6-.5zm3.8 0h-.8c-.3 0-.6.2-.6.5s.3.5.6.5h.7c.3 0 .6-.2.6-.5 0-.2-.2-.5-.5-.5zm3.7 0h-.7c-.3 0-.6.2-.6.5s.3.5.6.5h.7c.3 0 .6-.2.6-.5 0-.2-.3-.5-.6-.5zm-7.5 2.4h-.7c-.3 0-.6.2-.6.5s.3.5.6.5h.7c.3 0 .6-.2.6-.5s-.3-.5-.6-.5zm3.8 0h-.8c-.3 0-.6.2-.6.5s.3.5.6.5h.7c.3 0 .6-.2.6-.5s-.2-.5-.5-.5zm3.7 0h-.7c-.3 0-.6.2-.6.5s.3.5.6.5h.7c.3 0 .6-.2.6-.5s-.3-.5-.6-.5z" fill="#888"/><path d="m6.4 228.7c0 1.1 1 2 2.2 2s2.2-.9 2.2-2-1-2-2.2-2-2.2.9-2.2 2zm3.1 0c0 .5-.4.9-.9.9s-.9-.4-.9-.9.4-.9.9-.9c.5.1.9.5.9.9zm-.9 2.5c-1.2 0-2.2.5-2.9 1.5-.5.7-.8 1.7-.9 2.9 0 .3.2.6.6.6.3 0 .6-.2.7-.5.2-2.2 1.1-3.4 2.6-3.4s2.3 1.1 2.6 3.4c0 .3.3.5.6.5h.1c.3 0 .6-.3.6-.6-.1-1.2-.4-2.2-.9-2.9-.9-1-1.9-1.5-3.1-1.5zm1-8.2c-.3 0-.6.3-.6.6s.3.6.6.6h4.7c.8 0 1.4.6 1.4 1.3v12.7c0 .7-.6 1.3-1.4 1.3h-11.7c-.8 0-1.4-.6-1.4-1.3v-12.7c0-.7.6-1.3 1.4-1.3h4.7c.3 0 .6-.3.6-.6s-.2-.6-.6-.6h-4.7c-1.5 0-2.6 1.1-2.6 2.4v12.7c0 1.3 1.2 2.4 2.6 2.4h11.7c1.5 0 2.6-1.1 2.6-2.4v-12.7c0-1.3-1.2-2.4-2.6-2.4zm8.9 2.5c-.3 0-.6.3-.6.6s.3.6.6.6h1.3c.8 0 1.4.6 1.4 1.3v12.7c0 .7-.6 1.3-1.4 1.3h-11.7c-.8 0-1.5 1.2 0 1.2h11.7c1.5 0 2.6-1.1 2.6-2.4v-12.7c0-.2 0-.5-.1-.7-.3-1-1.3-1.7-2.5-1.7h-1.3z" fill="#0297cf"/><path d="m9.2 257.1 2.6 1.8c.1.1.2.1.4.1s.3 0 .4-.1l2.6-1.8c.2-.1.3-.3.3-.5v-3.1c0-.3-.3-.6-.6-.6h-5.3c-.3 0-.6.3-.6.6v3.1c-.1.3 0 .4.2.5zm1-2.9h4v2.2l-2 1.4-2-1.4zm11.6 1.2h-4.7c-.3 0-.6.3-.6.6s.3.6.6.6h4.7c.8 0 1.4.6 1.4 1.3v12.7c0 .7-.6 1.3-1.4 1.3h-19.2c-.8 0-1.4-.6-1.4-1.3v-12.7c0-.7.6-1.3 1.4-1.3h4.7c.3 0 .6-.3.6-.6s-.3-.6-.6-.6h-4.7c-1.5 0-2.6 1.1-2.6 2.4v12.7c0 1.3 1.2 2.4 2.6 2.4h19.2c1.5 0 2.6-1.1 2.6-2.4v-12.7c0-1.3-1.2-2.4-2.6-2.4zm-17.2 6.1c0 1.1 1 2 2.2 2s2.2-.9 2.2-2-1-2-2.2-2-2.2.9-2.2 2zm3.1 0c0 .5-.4.9-.9.9s-.9-.4-.9-.9.4-.9.9-.9.9.4.9.9zm-.9 2.4c-1.2 0-2.2.5-2.9 1.5-.5.7-.8 1.7-.9 2.9 0 .3.2.6.6.6.3 0 .6-.2.7-.5.2-2.2 1.1-3.4 2.6-3.4s2.3 1.1 2.6 3.4c0 .3.3.5.6.5h.1c.3 0 .6-.3.6-.6-.1-1.2-.4-2.2-.9-2.9-.9-1-1.9-1.5-3.1-1.5zm13.2-3.4h-7c-.3 0-.6.3-.6.6s.3.6.6.6h7c.3 0 .6-.3.6-.6s-.3-.6-.6-.6zm.6 4.7c0-.3-.3-.6-.6-.6h-7c-.3 0-.6.3-.6.6s.3.6.6.6h7c.3 0 .6-.3.6-.6zm-7.6 1.5c-.3 0-.6.3-.6.6s.3.6.6.6h3.5c.3 0 .6-.3.6-.6s-.3-.6-.6-.6zm7-4.1h-7c-.3 0-.6.3-.6.6s.3.6.6.6h7c.3 0 .6-.3.6-.6s-.3-.6-.6-.6z" fill="#0297cf"/><path d="m5.4 291.1c0-.3-.2-.5-.5-.5h-4.4c-.3 0-.5.2-.5.5s.2.5.5.5h4.3c.3 0 .6-.2.6-.5zm11.8-.5h-4.3c-.3 0-.5.2-.5.5s.2.5.5.5h4.3c.3 0 .5-.2.5-.5 0-.2-.2-.5-.5-.5zm-8.3-2.6c.3 0 .5-.2.5-.5v-4c0-.3-.2-.5-.5-.5s-.5.2-.5.5v4c-.1.2.2.5.5.5zm2.8 1c.1 0 .3 0 .4-.1l3.1-2.8c.2-.2.2-.5 0-.7s-.6-.2-.8 0l-3.1 2.8c-.2.2-.2.5 0 .7.1.1.3.1.4.1zm-6.1-.1c.1.1.3.1.4.1s.3 0 .4-.1c.2-.2.2-.5 0-.7l-3.1-2.8c-.2-.2-.6-.2-.8 0s-.2.5 0 .7zm9.7 5.4c-.4-.3-.9-.5-1.4-.5h-.5-1.8-.8v-2c0-1-.3-1.7-.9-2.1-1-.7-2.3-.3-2.3-.3-.2.1-.4.3-.4.5v2.4c0 .7-.4 1.4-1.1 1.9-.6.4-1.2.6-1.2.6h-.1c-.2-.2-.5-.3-.8-.3h-2c-.6 0-1.1.5-1.1 1v6.2c0 .6.5 1 1.1 1h2.1c.3 0 .5-.1.7-.2.4.4 1 .6 1.6.6h2 .2 4.2c.6 0 1.2-.1 1.7-.4.6-.3.9-.9 1-1.6l.8-4.7c-.1-.9-.4-1.7-1-2.1zm-11.4 7.3h-2.1v-6.2h2.1zm11.1-5.5-.8 4.7c0 .3-.2 1.1-1.6 1.1h-4.2-.2-2c-.6 0-1.1-.4-1.2-.9 0 0 0 0 0-.1v-5.3s.8-.2 1.6-.7c1.1-.7 1.6-1.6 1.6-2.7v-2c.3 0 .7 0 1 .2s.5.6.5 1.3v2.5c0 .3.2.5.5.5h1.4 1.8.5c.3 0 .5.1.7.3.3.3.5.7.4 1.1z" fill="#0297cf"/><path d="m19 321.7c0-4.8-4.3-8.7-9.5-8.7s-9.5 3.9-9.5 8.7 4.3 8.7 9.5 8.7c.1 0 .3-.1.4-.1.1-.1.2-.2.2-.4v-7.7h8.4c.3 0 .5-.2.5-.5zm-9.5-.5c-.3 0-.5.2-.5.5v7.7c-4.4-.3-7.9-3.6-7.9-7.7 0-4.3 3.8-7.7 8.4-7.7 4.5 0 8.1 3.2 8.4 7.2zm11.7 2.5h-9c-.3 0-.5.2-.5.5v8.2c0 .3.2.5.5.5 2.5 0 4.9-.9 6.7-2.6 1.8-1.6 2.8-3.8 2.8-6.2.1-.1-.1-.4-.5-.4zm-8.4 8.2v-7.2h7.9c-.3 3.9-3.7 7-7.9 7.2z" fill="#0297cf"/><path d="m17.7 353.9h-3.4c-.9 0-1.7.7-1.7 1.5v2.4c0 .8.8 1.5 1.7 1.5h3.4c.9 0 1.7-.7 1.7-1.5v-2.4c0-.8-.7-1.5-1.7-1.5zm7.3-4.4c0-.1 0-.2-.1-.3l-3.7-6c-.1-.2-.3-.3-.5-.3h-16.4c-.2 0-.4.1-.5.3l-3.7 6c-.1.1-.1.2-.1.3 0 1.3.9 2.5 2.1 3v9.9c0 .3.3.6.6.6h3.4 4.7 11.3c.3 0 .6-.3.6-.6v-9.8s0 0 0-.1c1.4-.5 2.3-1.6 2.3-3zm-20.3-5.4h15.6l2.9 4.7h-21.4zm13.1 5.8c-.2 1-1.2 1.8-2.3 1.8s-2.1-.8-2.3-1.8zm-6 0c-.2 1-1.2 1.8-2.3 1.8s-2.1-.8-2.3-1.8zm-10.5 0h4.6c-.2 1-1.2 1.8-2.3 1.8-1.2 0-2.1-.8-2.3-1.8zm9 11.9h-3.5v-6c0-.4.4-.8.9-.8h1.8c.5 0 .9.4.9.8zm7.9-4c0 .2-.2.4-.5.4h-3.4c-.3 0-.5-.2-.5-.4v-2.4c0-.2.2-.4.5-.4h3.4c.3 0 .5.2.5.4zm3.4 4h-10.1v-6c0-1.1-.9-1.9-2.1-1.9h-1.8c-1.2 0-2.1.9-2.1 1.9v6.1h-2.1v-9h.2c1.2 0 2.3-.6 3-1.4.6.9 1.7 1.4 3 1.4s2.3-.6 3-1.4c.6.9 1.7 1.4 3 1.4 1.2 0 2.3-.6 3-1.4.6.9 1.7 1.4 3 1.4h.2v8.9zm-.2-10.1c-1.2 0-2.1-.8-2.3-1.8h4.6c-.2 1-1.2 1.8-2.3 1.8z" fill="#0297cf"/><path d="m21 375.9h-5.6v-1.4c0-.9-.8-1.5-1.7-1.5h-12c-.9 0-1.7.7-1.7 1.5v16.9c0 .9.8 1.5 1.7 1.5h12c.9 0 1.7-.7 1.7-1.5v-2.1h5.6c.9 0 1.7-.7 1.7-1.5v-10.3c0-.9-.8-1.6-1.7-1.6zm-1.7 1.1v11.3h-1.1v-11.3zm-5.1 14.4c0 .3-.2.5-.6.5h-12c-.3 0-.6-.2-.6-.5v-16.9c0-.3.2-.5.6-.5h12c.3 0 .6.2.6.5zm1.2-14.4h1.7v11.3h-1.7zm6.1 10.8c0 .3-.2.5-.6.5h-.5v-11.3h.6c.3 0 .6.2.6.5v10.3zm-17.1-5.6h6.5c.8 0 1.4-.6 1.4-1.3v-3.9c0-.7-.6-1.3-1.4-1.3h-6.5c-.8 0-1.4.6-1.4 1.3v3.9c0 .8.6 1.3 1.4 1.3zm-.3-5.1c0-.2.1-.3.3-.3h6.5c.2 0 .3.1.3.3v3.9c0 .2-.1.3-.3.3h-6.5c-.2 0-.3-.1-.3-.3zm.2 7.3h-.7c-.3 0-.6.2-.6.5s.3.5.6.5h.7c.3 0 .6-.2.6-.5s-.3-.5-.6-.5zm3.8 0h-.8c-.3 0-.6.2-.6.5s.3.5.6.5h.7c.3 0 .6-.2.6-.5s-.2-.5-.5-.5zm3.7 0h-.7c-.3 0-.6.2-.6.5s.3.5.6.5h.7c.3 0 .6-.2.6-.5s-.3-.5-.6-.5zm-7.5 2.3h-.7c-.3 0-.6.2-.6.5s.3.5.6.5h.7c.3 0 .6-.2.6-.5s-.3-.5-.6-.5zm3.8 0h-.8c-.3 0-.6.2-.6.5s.3.5.6.5h.7c.3 0 .6-.2.6-.5s-.2-.5-.5-.5zm3.7 0h-.7c-.3 0-.6.2-.6.5s.3.5.6.5h.7c.3 0 .6-.2.6-.5s-.3-.5-.6-.5zm-7.5 2.4h-.7c-.3 0-.6.2-.6.5s.3.5.6.5h.7c.3 0 .6-.2.6-.5s-.3-.5-.6-.5zm3.8 0h-.8c-.3 0-.6.2-.6.5s.3.5.6.5h.7c.3 0 .6-.2.6-.5s-.2-.5-.5-.5zm3.7 0h-.7c-.3 0-.6.2-.6.5s.3.5.6.5h.7c.3 0 .6-.2.6-.5s-.3-.5-.6-.5z" fill="#0297cf"/><path d="m17.1 0c8.9.3 15.9 7.6 15.9 16.5 0 9.1-7.4 16.5-16.5 16.5s-16.5-7.4-16.5-16.5c0-7 4.4-13 10.6-15.4l-4.1 16.5h14.4l-2.4 4.6c-1.4 2.7-.3 6 2.4 7.3l5.2-10.8c.9-1.8-.5-3.9-2.5-3.9h-9.7l3.2-12.5c.2-.8.2-1.6 0-2.3z" fill="#0298cf"/><path d="m17.7 8h-.3c-.4-1.1-1.2-2.2-2.2-3-.1-.5 0-1.1.3-1.7.2-.3.2-.7 0-1s-.6-.5-.9-.4c-1.4.2-2.2.8-2.7 1.4-.5-.1-.9-.2-1.4-.3-.3 0-.5.2-.5.4 0 .3.2.5.4.5.5.1 1.1.2 1.6.3.2.1.4 0 .5-.2.3-.5 1-1.1 2.3-1.3-.5.8-.7 1.6-.4 2.4 0 .1.1.3.2.3 1 .8 1.8 1.9 2.2 3 .1.2.2.3.4.3h.6c.2 0 .4.2.4.4v2.1c0 .2-.2.4-.4.4h-.6c-.2 0-.4.1-.4.3-.3 1.1-1 2.1-1.9 2.9s-.1.1-.1.1c-1 .9-1.1 2-1.1 2.3v.8h-2.8v-.7c0-.1-.1-.3-.2-.3-.1-.1-.2-.1-.4-.1-.5.1-.8.1-1.1.1-.4 0-.8 0-1.2-.1-.1 0-.3 0-.4.1s-.2.2-.2.3v.7h-2.7v-.2c0-.5-.2-1.8-1.2-2.8-.5-.5-.9-1.1-1.3-1.9-.2-.4-.4-.9-.5-1.3-.1-.4-.2-.9-.2-1.4 0-.3 0-.6.1-1 0-.3-.1-.5-.4-.5-.2-.1-.5.1-.5.4-.1.3-.1.7-.1 1.1 0 .5.1 1 .2 1.6.1.5.3 1 .6 1.5.4.9.9 1.6 1.5 2.2.8.8.9 1.8.9 2.2v.2.1c0 .5.4.8.9.8h2.8c.5 0 .9-.4.9-.9v-.2h1.3v.2c0 .5.4.9.9.9h2.8c.5 0 .9-.4.9-.9v-.7c0-.2.1-.9.8-1.6 0 0 .1-.1.1-.1.9-.8 1.7-1.9 2.1-3h.3c.7 0 1.3-.6 1.3-1.3v-2.1c.1-.8-.5-1.3-1.2-1.3zm-13.1 1.1c2.5 0 4.6-2 4.6-4.6s-2.1-4.5-4.6-4.5-4.6 2-4.6 4.6 2.1 4.5 4.6 4.5zm0-8.2c2 0 3.7 1.6 3.7 3.6s-1.7 3.7-3.7 3.7-3.7-1.7-3.7-3.6 1.7-3.7 3.7-3.7z" fill="#005ea7" transform="translate(0 1074)"/><path d="m17.5 10.6c-.6-1.1-1.4-2.2-2.3-3.2-1.2-1.2-2.4-2.1-3-2.5l2.3-3.7c.1-.2.1-.4-.1-.5-.6-.5-1.2-.7-1.9-.7-.6 0-1.2.2-1.7.4-.4.1-.8.3-1.1.3-.1 0-.2 0-.3 0-1.1-.4-1.9-.6-2.7-.6-1 0-1.9.3-2.7 1.1-.2.1-.2.4-.1.6l2.5 3.2c-.6.4-1.8 1.2-3 2.4-1 1-1.8 2.1-2.3 3.2-.7 1.4-1.1 2.9-1.1 4.4 0 2 1.9 3.6 4.2 3.6h10.2c2.3 0 4.2-1.6 4.2-3.6 0-1.5-.4-3-1.1-4.4zm-12.5-9c.6-.4 1.1-.6 1.7-.6s1.3.2 2.3.5c.2.1.4.1.6.1.5 0 1-.2 1.5-.4s.9-.3 1.3-.3c.2 0 .5 0 .9.3l-2.2 3.5h-3.7zm5 10.1h-1.2c-.5 0-.8-.3-.8-.7s.4-.7.8-.7h2.2c.3 0 .5-.2.5-.5s-.2-.5-.5-.5h-1v-.6c0-.3-.2-.5-.5-.5s-.6.3-.6.5v.6h-.1c-1 0-1.9.7-1.9 1.6s.9 1.6 1.9 1.6h1.2c.5 0 .8.3.8.7s-.3.8-.8.8h-2.2c-.3 0-.5.2-.5.5s.2.5.5.5h1.1v.7c0 .3.2.5.5.5s.5-.2.5-.5v-.7h.1c1 0 1.9-.7 1.9-1.6 0-1-.8-1.7-1.9-1.7zm4.4 6h-10.2c-1.7 0-3.1-1.2-3.1-2.7 0-2.5 1.1-4.8 3.1-7 1.3-1.4 2.7-2.2 3.1-2.5h4c.4.2 1.7 1.1 3.1 2.5 2.1 2.2 3.1 4.5 3.1 7 0 1.5-1.4 2.7-3.1 2.7z" fill="#005ea7" transform="translate(0 1103)"/><path d="m16.5 4.2h-16c-.3 0-.5.2-.5.4v7.8c0 .3.2.5.5.5h16c.3 0 .5-.2.5-.5v-7.8c0-.2-.2-.4-.5-.4zm-.5 7.8h-14.9v-6.9h14.9zm-12.4-3h1.4c.3 0 .5-.2.5-.5s-.2-.4-.5-.4h-1.4c-.3 0-.5.2-.5.5s.2.4.5.4zm15.2-6.9h-16c-.3 0-.5.2-.5.5s.3.4.6.4h15.4v7.4c0 .3.2.5.5.5s.5-.2.5-.5v-7.9c.1-.2-.2-.4-.5-.4zm2.4-2.1h-16c-.3 0-.5.2-.5.5s.2.5.5.5h15.4v7.4c0 .3.2.5.5.5s.5-.2.5-.5v-7.9c.1-.3-.1-.5-.4-.5zm-9.1 9h1.3c.3 0 .6-.2.6-.5s-.2-.5-.5-.5h-1.3c-.3 0-.5.2-.5.5s.1.5.4.5zm-4 0h.8c.2 0 .4.1.4.3s-.2.3-.4.3h-1.5c-.3 0-.5.2-.5.5s.2.5.5.5h.6v.3c0 .3.2.5.5.5s.5-.2.5-.5v-.3c.8-.1 1.3-.6 1.3-1.3s-.7-1.3-1.5-1.3h-.7c-.2 0-.4-.1-.4-.3s.2-.3.4-.3h1.5c.3 0 .5-.2.5-.5s-.2-.5-.5-.5h-.5v-.2c0-.3-.2-.5-.5-.5s-.6.2-.6.5v.3c-.8.1-1.4.6-1.4 1.3s.7 1.2 1.5 1.2z" fill="#005ea7" transform="translate(0 1132)"/><path d="m15.8 0h-15.4c-.2 0-.4.2-.4.4s.2.4.4.4h.9v15.2c0 .2.1.3.2.4s.3.1.4 0l1.9-1.2 1.9 1.2c.1.1.3.1.5 0l1.9-1.2 1.9 1.2c.1.1.3.1.5 0l1.9-1.2 1.9 1.2c.1 0 .2.1.2.1h.2c.1-.1.2-.2.2-.4v-15.2h1c.2 0 .4-.2.4-.4s-.3-.5-.5-.5zm-1.8 15.3-1.4-.9c-.1-.1-.3-.1-.5 0l-1.9 1.2-1.9-1.2c-.1-.1-.3-.1-.5 0l-1.8 1.2-1.9-1.2c-.1-.1-.3-.1-.5 0l-1.4.9v-14.5h11.8zm-9.8-8.6h4.5c.2 0 .4-.2.4-.4s-.2-.4-.4-.4h-4.5c-.2 0-.4.2-.4.4 0 .3.1.4.4.4zm0 1.5h3.4c.2 0 .4-.2.4-.4s-.2-.4-.4-.4h-3.4c-.2 0-.4.2-.4.4s.1.4.4.4zm6.7-1.5h1.1c.2 0 .4-.2.4-.4s-.2-.4-.4-.4h-1.1c-.2 0-.4.2-.4.4 0 .3.2.4.4.4zm0 1.5h1.1c.2 0 .4-.2.4-.4s-.2-.4-.4-.4h-1.1c-.2 0-.4.2-.4.4s.2.4.4.4zm-6.7-4.8h4.5c.2 0 .4-.2.4-.4s-.2-.5-.4-.5h-4.5c-.2 0-.4.2-.4.4s.1.5.4.5zm0 1.4h3.4c.2 0 .4-.2.4-.4s-.2-.4-.4-.4h-3.4c-.2 0-.4.2-.4.4s.1.4.4.4zm6.7-1.4h1.1c.2 0 .4-.2.4-.4s-.1-.5-.4-.5h-1.1c-.2 0-.4.2-.4.4s.2.5.4.5zm0 1.4h1.1c.2 0 .4-.2.4-.4.1-.2-.1-.4-.4-.4h-1.1c-.2 0-.4.2-.4.4s.2.4.4.4zm-6.7 5.4h4.5c.2 0 .4-.2.4-.4s-.2-.4-.4-.4h-4.5c-.2-.1-.4.1-.4.4 0 .2.1.4.4.4zm0 1.4h3.4c.2 0 .4-.2.4-.4s-.2-.4-.4-.4h-3.4c-.2 0-.4.2-.4.4 0 .3.1.4.4.4zm6.7-1.4h1.1c.2 0 .4-.2.4-.4s-.2-.4-.4-.4h-1.1c-.2 0-.4.2-.4.4s.2.4.4.4zm0 1.4h1.1c.2 0 .4-.2.4-.4s-.2-.4-.4-.4h-1.1c-.2 0-.4.2-.4.4 0 .3.2.4.4.4z" fill="#005ea7" transform="translate(0 1155)"/><path d="m10 601c-5.5 0-10 4.5-10 10s4.5 10 10 10 10-4.5 10-10-4.5-10-10-10zm-9.2 10.4h3.6c0 1.3.2 2.5.4 3.6h-3.1c-.5-1.1-.8-2.3-.9-3.6zm9.6-5.2v-4.4c1.6.2 2.9 1.9 3.7 4.4zm3.9.8c.3 1.1.4 2.3.5 3.6h-4.4v-3.6zm-4.7-5.2v4.4h-3.7c.8-2.4 2.1-4.1 3.7-4.4zm0 5.2v3.6h-4.4c0-1.3.2-2.5.5-3.6zm-5.2 3.6h-3.6c.1-1.3.4-2.5.9-3.6h3.1c-.2 1.1-.4 2.3-.4 3.6zm.8.8h4.4v3.6h-3.9c-.3-1.1-.5-2.3-.5-3.6zm4.4 4.4v4.4c-1.6-.2-2.9-1.9-3.7-4.4zm.8 4.4v-4.4h3.7c-.8 2.4-2.1 4.1-3.7 4.4zm0-5.2v-3.6h4.4c0 1.3-.2 2.5-.5 3.6zm5.2-3.6h3.6c-.1 1.3-.4 2.5-.9 3.6h-3.1c.2-1.1.4-2.3.4-3.6zm0-.8c0-1.3-.2-2.5-.4-3.6h3.1c.5 1.1.9 2.3.9 3.6zm2.2-4.4h-2.9c-.5-1.7-1.3-3.1-2.2-4 2.2.7 4 2.1 5.1 4zm-10.5-4c-.9.9-1.7 2.3-2.2 4h-2.9c1.1-1.9 2.9-3.3 5.1-4zm-5.1 13.6h2.9c.5 1.7 1.3 3.1 2.2 4-2.2-.7-4-2.1-5.1-4zm10.5 4c.9-.9 1.7-2.3 2.2-4h2.9c-1.1 1.9-2.9 3.3-5.1 4z"/><path d="m19.2 545h-18.7c-.3 0-.5.2-.5.5v13.1c0 .3.2.5.5.5h8.9v2.4h-3.5c-.3 0-.5.2-.5.5s.2.5.5.5h8c.3 0 .5-.2.5-.5s-.2-.5-.5-.5h-3.5v-2.4h8.9c.3 0 .5-.2.5-.5v-13.1c-.1-.3-.3-.5-.6-.5zm-.4 13.1h-17.8v-12.1h17.8zm-11.9-5.7-.6.1 2.8 1.3.3.2.3-.3 4.4-5.1-.4.2 2.3.1h.5v-1h-.5l-2.3-.1h-.2l-.2.2-4.4 5.1.6-.1-2.8-1.3-.3-.2-.3.3-3 3-.4.4.7.7.4-.4z"/><path d="m20.4 405.6h-19.7c-.4 0-.7.3-.7.6v9.8c0 .3.3.6.7.6h19.8c.4 0 .7-.3.7-.6v-9.8c-.1-.3-.4-.6-.8-.6zm-.6 9.8h-18.5v-8.7h18.4v8.7zm-15.3-3.7h1.7c.4 0 .7-.3.7-.6s-.3-.6-.7-.6h-1.7c-.4 0-.7.3-.7.6s.3.6.7.6zm18.8-8.7h-19.7c-.4 0-.7.3-.7.6s.3.6.7.6h19.1v9.2c0 .3.3.6.7.6s.7-.3.7-.6v-9.8c-.1-.3-.4-.6-.8-.6zm-8.3 8.7h1.7c.4 0 .7-.3.7-.6s-.3-.6-.7-.6h-1.7c-.4 0-.7.3-.7.6s.3.6.7.6zm-5 0h1c.3 0 .5.2.5.4s-.2.4-.5.4h-1.8c-.4 0-.7.3-.7.6s.3.6.7.6h.7v.4c0 .3.3.6.7.6s.7-.3.7-.6v-.4c.9-.1 1.7-.7 1.7-1.6s-.8-1.6-1.8-1.6h-1c-.3 0-.5-.2-.5-.4s.2-.4.5-.4h1.8c.4 0 .7-.3.7-.6s-.3-.6-.7-.6h-.7v-.4c0-.3-.3-.6-.7-.6s-.7.3-.7.6v.4c-.9.1-1.7.7-1.7 1.6s.8 1.6 1.8 1.6z"/><path d="m20.8 574.7h-5v-.9c0-1-.8-1.8-1.8-1.8h-5.4c-1 0-1.8.8-1.8 1.8v.9h-5c-1 0-1.8.8-1.8 1.8v12.7c0 1 .8 1.8 1.8 1.8h19c1 0 1.8-.8 1.8-1.8v-12.7c0-1-.8-1.8-1.8-1.8zm-13.1-.9c0-.5.4-.9.9-.9h5.4c.5 0 .9.4.9.9v.9h-7.2zm14 15.4c0 .5-.4.9-.9.9h-19c-.5 0-.9-.4-.9-.9v-7.2c.4.3.8.5 1.4.5h7.2v.5c0 .7.6 1.4 1.4 1.4h.9c.7 0 1.4-.6 1.4-1.4v-.5h7.2c.5 0 1-.2 1.4-.5v7.2zm-11.3-6.3v-1.9c0-.2.2-.5.5-.5h.9c.2 0 .5.2.5.5v1.8c0 .2-.2.5-.5.5h-.9c-.3 0-.5-.2-.5-.4zm11.3-2.8c0 .7-.6 1.4-1.4 1.4h-7.2v-.5c0-.7-.6-1.4-1.4-1.4h-.9c-.7 0-1.4.6-1.4 1.4v.5h-7.1c-.7 0-1.4-.6-1.4-1.4v-3.6c0-.5.4-.9.9-.9h19c.5 0 .9.4.9.9z"/><path d="m9.9 531.5 4.2-4.2c.1-.1.1-.2.1-.3v-10.8c0-.7-.6-1.2-1.2-1.2h-11.8c-.7 0-1.2.6-1.2 1.2v14.2c0 .7.6 1.2 1.2 1.2h8.3c.2.1.3 0 .4-.1zm.1-1.3v-2.3c0-.2.2-.4.4-.4h2.3zm-9.2.2v-14.2c0-.2.2-.4.4-.4h11.7c.2 0 .4.2.4.4v10.4h-2.9c-.7 0-1.2.6-1.2 1.2v2.9h-8c-.2.1-.4-.1-.4-.3zm16.3-11.6c-.2 0-.4.2-.4.4v14.6c0 .2-.2.4-.4.4h-12.1c-.2 0-.4.2-.4.4s.2.4.4.4h12.1c.7 0 1.2-.6 1.2-1.2v-14.6c0-.3-.2-.4-.4-.4zm-1.3 13.3v-14.6c0-.2-.2-.4-.4-.4s-.4.2-.4.4v14.6c0 .2-.2.4-.4.4h-12.1c-.2 0-.4.2-.4.4s.2.4.4.4h12.1c.7 0 1.2-.5 1.2-1.2zm-5.4-6.3c.2 0 .4-.2.4-.4s-.2-.4-.4-.4h-6.6c-.2 0-.4.2-.4.4s.2.4.4.4zm-6.6-2h6.7c.2 0 .4-.2.4-.4s-.2-.4-.4-.4h-6.7c-.2 0-.4.2-.4.4-.1.2.1.4.4.4zm0-2.1h6.7c.2 0 .4-.2.4-.4s-.2-.4-.4-.4h-6.7c-.2 0-.4.2-.4.4s.1.4.4.4zm0-2.1h6.7c.2 0 .4-.2.4-.4s-.2-.4-.4-.4h-6.7c-.2 0-.4.2-.4.4-.1.2.1.4.4.4z"/><path d="m17.2 465.5c0-4.7-3.9-8.5-8.6-8.5s-8.6 3.8-8.6 8.5 3.9 8.5 8.6 8.5c.1 0 .3-.1.4-.1.1-.1.1-.2.1-.3v-7.6h7.6c.3 0 .5-.2.5-.5zm-8.6-.5c-.3 0-.5.2-.5.5v7.5c-4-.3-7.1-3.5-7.1-7.5 0-4.1 3.4-7.5 7.6-7.5 4 0 7.4 3.1 7.6 7zm10.7 2.5h-8.1c-.3 0-.5.2-.5.5v8c0 .3.2.5.5.5 2.3 0 4.5-.9 6.1-2.5s2.5-3.7 2.5-6c-.1-.3-.3-.5-.5-.5zm-7.7 8v-7h7.1c-.2 3.7-3.3 6.7-7.1 7z"/><path d="m17.3 489.6c-1.7-1.7-4-2.6-6.5-2.6s-4.8 1-6.6 2.7c-.2.2-.2.5 0 .7s.5.2.7 0c1.6-1.6 3.6-2.4 5.9-2.4 4.5 0 8.2 3.6 8.2 8.1 0 4.4-3.7 8.1-8.2 8.1s-8.2-3.6-8.2-8.1v-.1l.8.8c.1.1.2.1.3.1s.3 0 .3-.1c.2-.2.2-.5 0-.7l-1.7-1.6c-.2-.2-.5-.2-.7 0l-1.5 1.5c-.2.2-.2.5 0 .7s.5.2.7 0l.8-.8v.1c0 2.4 1 4.7 2.7 6.4s4 2.6 6.5 2.6 4.8-.9 6.5-2.6 2.7-4 2.7-6.4-1-4.6-2.7-6.4zm-3.8 3.1-6.1 6c-.2.2-.2.5 0 .7.1.1.2.1.3.1s.3 0 .3-.1l6.1-6c.2-.2.2-.5 0-.7-.1-.1-.5-.1-.6 0zm-1.6 4.1c-.7.7-.7 1.8 0 2.5.3.3.8.5 1.3.5s.9-.2 1.3-.5c.7-.7.7-1.8 0-2.5-.3-.3-.8-.5-1.3-.5s-1 .1-1.3.5zm1.8 1.7c-.1.1-.3.2-.6.2s-.4-.1-.6-.2c-.3-.3-.3-.8 0-1.1.1-.1.3-.2.6-.2s.4.1.6.2c.3.4.3.8 0 1.1zm-5.1-6.2c-.5 0-.9.2-1.3.5-.3.3-.5.8-.5 1.2 0 .5.2.9.5 1.2s.8.5 1.3.5.9-.2 1.3-.5c.3-.3.5-.8.5-1.2 0-.5-.2-.9-.5-1.2-.4-.3-.9-.5-1.3-.5zm.5 2.3c-.1.1-.3.2-.6.2-.2 0-.4-.1-.6-.2-.1-.1-.2-.3-.2-.5s.1-.4.2-.5.3-.2.6-.2c.2 0 .4.1.6.2.1.1.2.3.2.5s0 .3-.2.5z"/><path d="m19.2 438.1-7.8-7.8c-.4-.4-1-.6-1.5-.6h-.1l-5.6.3c-.6 0-1.1.5-1.1 1.1l-.1 2c-.3-.2-.6-.4-.8-.6-.6-.6-1-1.3-1-2.1-.1-.7.1-1.4.6-1.8 1-1 2.7-.7 3.9.5.2.2.5.2.7 0s.2-.5 0-.7c-1.6-1.6-4-1.8-5.4-.5-.7.7-1 1.6-.9 2.7.1 1 .6 2 1.3 2.7.4.4.9.8 1.5 1l-.2 2.5c0 .6.2 1.2.6 1.7l7.8 7.8c.5.5 1.1.8 1.8.8.7 0 1.3-.3 1.8-.8l4.5-4.5c.5-.5.8-1.1.8-1.8 0-.8-.3-1.5-.8-1.9zm-.7 2.9-4.5 4.5c-.3.3-.7.5-1.1.5-.4 0-.8-.2-1.1-.5l-7.8-7.8c-.2-.2-.4-.6-.3-.9l.2-2.3h.3.4c.9 0 1.7-.3 2.3-.9.2-.2.2-.5 0-.7s-.5-.2-.7 0c-.4.4-1.1.7-1.8.6-.1 0-.2 0-.3 0l.2-2.3c0-.1.1-.2.2-.2l5.6-.4h.1c.3 0 .6.1.8.3l7.8 7.8c.3.3.5.7.5 1.1s-.5.9-.8 1.2z"/><path d="m5.3 987.4c-.3-.3-.6-.4-.9-.4h-.1l-3.4.2c-.4 0-.7.3-.7.7l-.2 3.4c0 .4.1.7.4 1l4.6 4.7c.3.3.7.5 1.1.5s.8-.2 1.1-.5l2.7-2.7c.3-.3.5-.7.5-1.1s-.2-.8-.5-1.1zm-2.7 3c.6 0 1-.4 1-1s-.4-1-1-1-1 .4-1 1 .4 1 1 1z" fill="#888"/><path d="m5.3 966.4c-.3-.3-.6-.4-.9-.4h-.1l-3.4.2c-.4 0-.7.3-.7.7l-.2 3.4c0 .4.1.7.4 1l4.6 4.7c.3.3.7.5 1.1.5s.8-.2 1.1-.5l2.7-2.7c.3-.3.5-.7.5-1.1s-.2-.8-.5-1.1zm-2.7 3c.6 0 1-.4 1-1s-.4-1-1-1-1 .4-1 1 .4 1 1 1z"/><path d="m11.8 924.6c-.1-1-3.1-1.6-5.9-1.6s-5.8.6-5.9 1.6v1.3s0 .1.1.1l4.3 2.9v5s0 .1.1.1h.1l2.9-.9c.1 0 .1-.1.1-.1v-4l4.3-2.9s.1-.1.1-.1zm-5.9-1c3.2 0 4.8.5 4.8.8 0 0-.1.1-.2.2-.5.2-1 .3-1.4.4-.2 0-.4.1-.6.1-.8.1-1.7.1-2.6.1-3.2 0-4.8-.5-4.8-.8s1.6-.8 4.8-.8z"/><path d="m11.1 949.1h-4.2v-4.2c0-.5-.4-.9-.9-.9s-.9.4-.9.9v4.2h-4.2c-.5 0-.9.4-.9.9s.4.9.9.9h4.2v4.2c0 .5.4.9.9.9s.9-.4.9-.9v-4.2h4.2c.5 0 .9-.4.9-.9s-.4-.9-.9-.9z" fill="#0297cf"/><g transform="translate(0 764)"><path d="m3 0h10c1.7 0 3 1.3 3 3v10c0 1.7-1.3 3-3 3h-10c-1.7 0-3-1.3-3-3v-10c0-1.7 1.3-3 3-3z" fill="none" mask="url(#a)" stroke="#c8c8c8" stroke-width="2"/><path d="m5.9 12.1c.2.2.4.3.6.3s.5-.1.6-.3l5.6-5.6c.4-.4.4-.9 0-1.3s-.9-.4-1.3 0l-4.9 4.9-2-2c-.4-.4-.9-.4-1.3 0s-.4.9 0 1.3z" fill="#027dcd"/></g><path d="m3 0h10c1.7 0 3 1.3 3 3v10c0 1.7-1.3 3-3 3h-10c-1.7 0-3-1.3-3-3v-10c0-1.7 1.3-3 3-3z" fill="none" mask="url(#b)" stroke="#c8c8c8" stroke-width="2" transform="translate(0 790)"/><g fill="none" transform="translate(0 816)"><path d="m6 4 4 3.7-4 3.4" stroke="#888" stroke-linecap="square"/><path d="m3 0h10c1.7 0 3 1.3 3 3v10c0 1.7-1.3 3-3 3h-10c-1.7 0-3-1.3-3-3v-10c0-1.7 1.3-3 3-3z" mask="url(#c)" stroke="#c8c8c8" stroke-width="2"/></g><path d="m5.7 852.5c2.7 0 4.8-2.2 4.8-4.8s-2.2-4.8-4.8-4.8-4.8 2.2-4.8 4.8 2.1 4.8 4.8 4.8zm0 .9c-3.1 0-5.7-2.5-5.7-5.7s2.5-5.7 5.7-5.7 5.7 2.5 5.7 5.7-2.6 5.7-5.7 5.7zm4.5-.6 3.1 3.1c.2.2.4.2.6 0s.2-.4 0-.6l-3.1-3.1c-.2-.2-.4-.2-.6 0s-.2.4 0 .6z" fill="#2b91d4"/><g transform="translate(0 866)"><path d="m9 0c5 0 9 4 9 9 0 5-4 9-9 9-5 0-9-4-9-9 0-5 4-9 9-9z" fill="#fff" mask="url(#d)" stroke="#e0e0e0" stroke-width="2"/><path d="m9 5c2.2 0 4 1.8 4 4 0 2.2-1.8 4-4 4-2.2 0-4-1.8-4-4 0-2.2 1.8-4 4-4z" fill="#005ea7"/></g><path d="m9 0c5 0 9 4 9 9 0 5-4 9-9 9-5 0-9-4-9-9 0-5 4-9 9-9z" fill="#fff" mask="url(#e)" stroke="#e0e0e0" stroke-width="2" transform="translate(0 894)"/><g fill="#e0e0e0" transform="translate(0 1008)"><path d="m6 4-2.9-3.9s-.1-.1-.1-.1-.1 0-.1.1l-2.9 3.9h2v7.3c0 .1.1.2.2.2h1.7c.1 0 .2-.1.2-.2l-.1-7.3z"/><path d="m12 7.5-2.9 3.9s-.1.1-.1.1-.1 0-.1-.1l-2.9-3.9h2v-7.3c0-.1.1-.2.2-.2h1.7s.1.1.1.2v7.3z"/></g><g transform="translate(0 1030)"><path d="m6 4-2.9-3.9s-.1-.1-.1-.1-.1 0-.1.1l-2.9 3.9h2v7.3c0 .1.1.2.2.2h1.7c.1 0 .2-.1.2-.2l-.1-7.3z" fill="#0297cf"/><path d="m12 7.5-2.9 3.9s-.1.1-.1.1-.1 0-.1-.1l-2.9-3.9h2v-7.3c0-.1.1-.2.2-.2h1.7s.1.1.1.2v7.3z" fill="#e0e0e0"/></g><g transform="translate(0 1052)"><path d="m6 4-2.9-3.9s-.1-.1-.1-.1-.1 0-.1.1l-2.9 3.9h2v7.3c0 .1.1.2.2.2h1.7c.1 0 .2-.1.2-.2l-.1-7.3z" fill="#e0e0e0"/><path d="m12 7.5-2.9 3.9s-.1.1-.1.1-.1 0-.1-.1l-2.9-3.9h2v-7.3c0-.1.1-.2.2-.2h1.7s.1.1.1.2v7.3z" fill="#0297cf"/></g><path d="m3 709.9c1.1 1.9 3.2 3.1 5.5 3.1 3.6 0 6.5-2.9 6.5-6.5 0-.1 0-.2-.1-.3-.1-1.6-.8-3.1-1.9-4.2s-2.6-1.8-4.2-1.9c-.1-.1-.2-.1-.3-.1-2.7 0-5 1.6-6 4h.8c.9-1.8 2.6-3 4.7-3.2v3.2h.7v-3.1c2.9.2 5.2 2.5 5.4 5.4h-1.2v.7h1.3c-.2 3-2.7 5.3-5.7 5.3-1.9 0-3.6-.9-4.6-2.3h-.9zm6-1.2c.1.1.2.1.4.1s.3-.1.4-.1l1.4-1.3s0 0 0 0v-.1s0 0 0 0l-1.3-1.2c-.2-.2-.5-.2-.7 0s-.2.5 0 .7l.4.4h-9c-.3 0-.5.2-.5.5s.2.5.5.5h8.9l-.5-.2c-.2.2-.2.5 0 .7z" fill="#fff"/><path d="m1.2 746.5c-.6-1.3-1.2-2.5-.4-2.5h10c.6 0 1.2.2 1.6.6l3.6 3.7c.2.2.3.4.3.7s-.1.5-.3.7l-3.6 3.7c-.4.4-1 .6-1.6.6h-10c-.7 0-.3-1.2.3-2.5h1c-.4.9-.7 1.6-.3 1.6h9c.3 0 .6-.1.8-.3l3.6-3.7v-.1s0-.1 0-.1l-3.6-3.7c-.2-.2-.5-.3-.8-.3h-9c-.4 0-.1.7.4 1.6zm7.4 4.5c.1.1.2.2.4.2.1 0 .3-.1.4-.2l1.3-1.3s0 0 0 0v-.1l-1.2-1.3c-.2-.2-.5-.2-.7 0s-.2.5 0 .7l.4.4h-8.7c-.3 0-.5.2-.5.5s.2.5.5.5h8.5l-.4.5c-.2-.4-.2-.1 0 .1z" fill="#fff"/><path d="m19.6 725.6c-.6-.6-1.4-.9-2.3-.9h-2.3v-1.1c0-.3-.2-.5-.5-.5h-10.5c-.3 0-.5.2-.5.5v1.8h-2.1c-.3 0-.5.2-.5.5s.2.5.5.5h2.6c.3 0 .5-.2.5-.5v-1.9h9.5v1.1 6.8h-5s0 0-.1 0c-.3-.6-.9-1.1-1.6-1.1s-1.4.4-1.6 1.1h-.1-1v-1.8c0-.3-.2-.5-.5-.5h-2.7c-.3 0-.5.2-.5.5s.2.5.5.5h2.1v1.8c0 .3.2.5.5.5h1.6c.2.8.9 1.3 1.7 1.3s1.5-.6 1.7-1.3h5.5.8c.2.8.9 1.3 1.7 1.3s1.5-.6 1.7-1.3h1.3c.3 0 .5-.2.5-.5v-4.2c0-1.1-.3-2-.9-2.6zm-12.3 7.6c-.4 0-.7-.3-.7-.7s.3-.7.7-.7.7.3.7.7-.3.7-.7.7zm9.8 0c-.4 0-.7-.3-.7-.7s.3-.7.7-.7.7.3.7.7-.3.7-.7.7zm2.4-1.3h-.7c-.3-.6-.9-1.1-1.6-1.1s-1.4.4-1.6 1.1h-.6v-6.3h2.2c1.4 0 2.2 1 2.2 2.6v3.7zm-10.4-2.3c.1.1.2.1.4.1s.3-.1.4-.1l1.4-1.3v-.1s0 0 0 0l-1.3-1.2c-.2-.2-.5-.2-.7 0s-.2.5 0 .7l.4.4h-9c-.3 0-.5.2-.5.5s.2.5.5.5h9l-.5.5c-.3-.5-.3-.2-.1 0z" fill="#fff"/><path d="m12.9 658.7h-12.5c-.2 0-.4.2-.4.4v6.9c0 .2.2.4.4.4h12.5c.2 0 .4-.2.4-.4v-6.9c0-.3-.2-.4-.4-.4zm-.4 6.8h-11.7v-6.1h11.6v6.1zm-9.7-2.6h1c.2 0 .4-.2.4-.4s-.2-.4-.4-.4h-1c-.2 0-.4.2-.4.4s.2.4.4.4zm11.9-6.1h-12.5c-.2 0-.4.2-.4.4s.2.4.4.4h12.1v6.5c0 .2.2.4.4.4s.4-.2.4-.4v-6.9c0-.2-.2-.4-.4-.4zm1.8-1.8h-12.4c-.2 0-.4.2-.4.4s.2.4.4.4h12.1v6.5c0 .2.2.4.4.4s.4-.2.4-.4v-6.9c0-.2-.2-.4-.5-.4zm-7.1 7.9h1c.2 0 .4-.2.4-.4s-.2-.4-.4-.4h-1c-.2 0-.4.2-.4.4s.2.4.4.4zm-3.1 0h.7c.2 0 .3.1.3.3s-.1.3-.3.3h-1.2c-.2 0-.4.2-.4.4s.2.4.4.4h.4v.3c0 .2.2.4.4.4s.4-.2.4-.4v-.3c.6 0 1.1-.5 1.1-1.1s-.5-1.1-1.1-1.1h-.7c-.2 0-.3-.1-.3-.3s.1-.3.3-.3h1.2c.2 0 .4-.2.4-.4s-.2-.4-.4-.4h-.4v-.3c0-.2-.2-.4-.4-.4s-.4.2-.4.4v.3c-.6 0-1.1.5-1.1 1.1s.5 1.1 1.1 1.1z" fill="#fff"/><path d="m14.1 681.8h-.2c-.4-.8-1-1.6-1.8-2.2-.1-.4 0-.8.3-1.2.2-.2.2-.5 0-.8-.2-.2-.5-.4-.8-.3-1.1.1-1.8.6-2.2 1-.4-.1-.8-.2-1.1-.2-.2 0-.4.1-.4.3s.1.4.3.4c.4 0 .9.1 1.3.2.2 0 .3 0 .4-.1.3-.4.8-.8 1.8-.9-.4.6-.5 1.2-.3 1.7 0 .1.1.2.1.3.8.6 1.4 1.4 1.7 2.2 0 .1.2.2.4.2h.5c.2 0 .3.1.3.3v1.5c0 .2-.1.3-.3.3h-.5c-.2 0-.3.1-.4.2-.3.8-.8 1.5-1.5 2.1s-.1 0-.1.1c-.8.6-.9 1.4-.9 1.6v.5h-2.2v-.5c0-.1 0-.2-.1-.2s-.2-.1-.3-.1c-.2 0-.5 0-.7 0-.3 0-.6 0-1-.1-.1 0-.2 0-.3.1-.1.3-.1.4-.1.4v.5h-2.3v-.1c0-.4-.1-1.3-1-2-.4-.4-.7-.8-1-1.4-.2-.3-.3-.6-.4-.9-.1-.3-.1-.7-.1-1 0-.2 0-.5.1-.7 0-.2-.1-.4-.3-.4s-.4.1-.4.3c0 .3-.1.5-.1.8 0 .4 0 .8.1 1.1.1.4.3.7.5 1.1.3.6.7 1.2 1.2 1.6.6.5.7 1.2.7 1.5v.1c0 .3.4.6.7.6h2.3c.4 0 .7-.3.7-.7h1v.1c0 .4.3.7.7.7h2.3c.4 0 .7-.3.7-.7v-.5c0-.1.1-.7.6-1.1 0 0 .1 0 .1-.1.8-.6 1.3-1.4 1.7-2.2h.2c.6 0 1.1-.4 1.1-.9v-1.5c.1-.5-.4-1-1-1zm-10.4 1.2c2 0 3.7-1.6 3.7-3.5s-1.6-3.5-3.7-3.5-3.7 1.6-3.7 3.5c0 2 1.6 3.5 3.7 3.5zm2.9-3.5c0 1.5-1.3 2.8-2.9 2.8s-2.9-1.3-2.9-2.8 1.3-2.8 2.9-2.8 2.9 1.3 2.9 2.8z" fill="#fff"/><path d="m13.7 639.2c-.4-.9-1.1-1.7-1.8-2.5-.9-1-1.9-1.6-2.3-1.9l1.8-2.8c.1-.1.1-.3-.1-.4-.5-.4-1-.6-1.5-.6s-1 .2-1.4.3c-.3.1-.6.2-.9.2-.1 0-.1 0-.2 0-.8-.3-1.5-.4-2.1-.4-.8 0-1.5.3-2.1.8-.1.1-.2.3 0 .4l1.9 2.5c-.5.3-1.4.9-2.3 1.9-.8.8-1.4 1.6-1.8 2.5-.6 1.1-.8 2.2-.8 3.4 0 1.5 1.5 2.8 3.3 2.8h8c1.8 0 3.3-1.2 3.3-2.8-.2-1.2-.4-2.3-1-3.4zm-9.8-7c.4-.3.8-.4 1.3-.4s1.1.1 1.8.4c.2 0 .3.1.5.1.4 0 .8-.1 1.2-.3.4-.1.7-.3 1-.3.2 0 .4 0 .7.2l-1.7 2.7h-2.9zm3.9 7.8h-1c-.4 0-.6-.2-.6-.5s.3-.5.6-.5h1.7c.2 0 .4-.2.4-.4s-.2-.4-.4-.4h-.7v-.5c0-.2-.2-.4-.4-.4s-.4.2-.4.4v.5h-.1c-.8 0-1.5.6-1.5 1.3s.7 1.3 1.5 1.3h1c.4 0 .6.2.6.5s-.3.5-.6.5h-1.8c-.2 0-.4.2-.4.4s.2.4.4.4h.8v.5c0 .2.2.4.4.4s.4-.2.4-.4v-.5h.1c.8 0 1.5-.6 1.5-1.3s-.6-1.3-1.5-1.3zm3.5 4.6h-8c-1.3 0-2.4-.9-2.4-2.1 0-1.9.8-3.7 2.5-5.4 1-1.1 2.1-1.7 2.4-1.9h3.2c.3.2 1.4.8 2.4 1.9 1.6 1.7 2.5 3.5 2.5 5.4-.2 1.2-1.3 2.1-2.6 2.1z" fill="#fff"/><g transform="translate(0 1183)"><path d="m22.8 12.9c-.1-.3-.5-.5-.8-.4l-10.1 3.3c-.5-.8-1.3-1.3-2.3-1.3h-.1-.1l-4-12.1c-.1-.1-.3-.2-.4-.3l-4.1-2c-.3-.2-.7-.1-.8.2s-.1.7.2.9l3.8 1.9 4 11.9c-.2.1-.4.3-.5.5-.5.5-.7 1.2-.7 2 0 1.4 1.2 2.5 2.7 2.5h.1c1.5-.1 2.7-1.3 2.6-2.8v-.1l10.1-3.3c.3-.2.5-.6.4-.9zm-13.2 5.8c-.8 0-1.5-.6-1.5-1.4 0-.4.1-.8.4-1 .3-.3.6-.5 1-.5h.1c.8 0 1.4.6 1.5 1.4-.1.8-.7 1.5-1.5 1.5zm1.1-4.8c.1.3.3.4.6.4h.2l9.7-3.2c.2-.1.3-.2.4-.3s.1-.3 0-.5l-3.2-9.7c-.1-.2-.2-.3-.3-.4s-.3-.1-.5 0l-4.9 1.6-4.8 1.7c-.3.1-.5.4-.4.8zm1.9-10.6.8 2.3c.1.3.3.4.6.4h.2c.3-.1.5-.5.4-.8l-.8-2.3 3.7-1.2 2.8 8.5-8.5 2.8-2.9-8.5z" fill="#888"/><path d="m22.8 42.9c-.1-.3-.5-.5-.8-.4l-10.1 3.3c-.5-.8-1.3-1.3-2.3-1.3h-.1-.1l-4-12.1c-.1-.2-.2-.3-.3-.4l-4.1-2c-.3-.2-.7 0-.8.3-.2.3 0 .7.3.9l3.8 1.9 3.8 11.9c-.2.1-.4.3-.5.5-.5.5-.7 1.2-.7 2 0 1.4 1.2 2.5 2.7 2.5h.1c1.5-.1 2.7-1.3 2.6-2.8v-.1l10.1-3.3c.3-.2.5-.6.4-.9zm-13.2 5.8c-.8 0-1.5-.6-1.5-1.4 0-.4.1-.8.4-1 .3-.3.6-.5 1-.5h.1c.8 0 1.4.6 1.5 1.4-.1.8-.7 1.5-1.5 1.5zm1.1-4.8c.1.3.3.4.6.4h.2l9.7-3.2c.2-.1.3-.2.4-.3s.1-.3 0-.5l-3.2-9.7c-.1-.2-.2-.3-.3-.4s-.3-.1-.5 0l-4.9 1.6-4.9 1.6c-.3.1-.5.5-.4.8zm1.9-10.6.8 2.3c.1.3.3.4.6.4h.2c.3-.1.5-.5.4-.8l-.8-2.3 3.7-1.2 2.8 8.5-8.5 2.8-2.8-8.5z" fill="#0297cf"/></g><g transform="translate(0 1243)"><g fill="#4d4d4d"><path d="m21.8 0h-19.9c-1.1 0-1.9.8-1.9 1.9v14.2c0 1 .8 1.9 1.9 1.9h4.3c.3 0 .5-.2.5-.5v-1.4h.9v1.4c0 .3.2.5.5.5h7.6c.3 0 .5-.2.5-.5v-1.4h.9v1.4c0 .3.2.5.5.5h4.3c1 0 1.9-.8 1.9-1.9v-14.2c-.1-1.1-1-1.9-2-1.9zm.9 16.1c0 .5-.4.9-.9.9h-3.8v-.9h.9c.3 0 .5-.2.5-.5s-.2-.5-.5-.5h-4.7c-.3 0-.5.2-.5.5s.2.5.5.5h.9v.9h-6.6v-.9h.9c.3 0 .5-.2.5-.5s-.2-.5-.5-.5h-4.7c-.3 0-.5.2-.5.5s.2.5.5.5h.9v.9h-3.7c-.5 0-.9-.4-.9-.9v-14.2c0-.5.4-.9.9-.9h19.9c.5 0 .9.4.9.9z"/><path d="m20.6 5h-7.1c-.3 0-.5.2-.5.5s.2.5.5.5h7.1c.3 0 .5-.2.5-.5s-.3-.5-.5-.5"/><path d="m20.6 7h-7.1c-.3 0-.5.2-.5.5s.2.5.5.5h7.1c.3 0 .5-.2.5-.5s-.3-.5-.5-.5"/><path d="m20.6 9h-7.1c-.3 0-.5.2-.5.5s.2.5.5.5h7.1c.3 0 .5-.2.5-.5s-.3-.5-.5-.5"/></g><path d="m9.4 8.6c-.1 0-.2-.1-.4-.1-.1 0-.3-.1-.4-.1h-.1c-.1 0-.3-.1-.4-.2 0-.4 0-.4.2-.6.6-.6.8-1.3.8-2.2 0-1.4-.9-2.4-2.4-2.4s-2.3 1-2.3 2.4c0 .9.2 1.6.8 2.1.2.2.2.2.2.6 0 0-.3.1-.4.2l-.6.2c-.1 0-.2 0-.4.1-1.2.4-2 .7-2 2.9 0 .1 0 .3.1.3.1.1.2.2.4.2h8.5c.1 0 .2-.1.3-.1.1-.1.1-.2.1-.3 0-2.3-.7-2.7-2-3zm-6.4 2.5c.1-1.2.4-1.3 1.3-1.6.1 0 .2-.1.4-.1.1 0 .3-.1.4-.1h.1c.4-.1 1-.3 1-1.1 0-.5 0-.8-.4-1.3-.3-.4-.5-.9-.5-1.5 0-.9.5-1.4 1.4-1.4s1.4.5 1.4 1.4c.1.6-.1 1.1-.5 1.5s-.4.7-.4 1.2c0 .7.6 1 1 1.1h.1c.1 0 .3.1.4.1s.3.1.4.1c.9.3 1.3.4 1.3 1.6h-7.4z" fill="#4a4a4a"/></g><g transform="translate(0 1271)"><path d="m20 4.7c0-.9-.5-1.4-1.4-1.6-.2 0-.3 0-.5-.1-.5-.1-1-.1-1.4-.2-1.8-.4-3.5-1.2-5.4-2.5-.4-.1-.7-.3-1.1-.3s-.8.2-1.1.4c-2.5 1.7-4.8 2.6-7.2 2.7-1 .1-1.6.6-1.6 1.6v1.8 5.1c0 .6.1 1.3.2 2 .4 1.6 1.2 3 2.5 4.3 1.7 1.7 3.8 2.9 6.4 3.9.4.2.6.2.8.2s.5-.1.7-.1c.1-.1.3-.1.4-.2.6-.3 1.3-.5 1.9-.9 2.2-1.1 3.8-2.4 5-4 1.1-1.4 1.6-2.9 1.7-4.4 0-.3 0-.6 0-1v-2.8-1.1c.1-1 .1-1.9.1-2.8zm-1.1 3.8v2.9.9c-.1 1.3-.5 2.5-1.5 3.8-1.1 1.5-2.6 2.7-4.6 3.7-.6.3-1.2.6-1.9.8-.1.1-.3.1-.4.2-.1 0-.2.1-.3.1s-.1 0-.2 0c-2.5-.9-4.5-2.1-6-3.7-1.2-1.2-2-2.4-2.3-3.8-.1-.6-.2-1.2-.2-1.7 0-1.7 0-3.4 0-5.1v-1.8c0-.2 0-.4.1-.4 0-.1.2-.2.4-.2 2.6-.1 5-1.1 7.8-2.9.2-.1.4-.2.4-.2.1 0 .2.1.4.2 2 1.4 3.9 2.2 5.8 2.6.5.1 1 .2 1.5.2.2 0 .3 0 .5.1.3 0 .4.2.4.5v2.8z" fill="#888"/><path d="m0 0v6.6c0 .2.1.4.3.4h1.5 2.1 5c.1 0 .2-.2.2-.4v-6.6z" fill="none" mask="url(#f)" stroke="#888" stroke-width="2" transform="translate(6 9)"/><path d="m11 4c0-.1 0-.1 0-.2l-1.7-3.6c0-.1-.1-.2-.2-.2h-7.2c-.1 0-.2.1-.2.2l-1.7 3.6v.2" fill="none" mask="url(#g)" stroke="#888" stroke-width="2" transform="translate(5 6)"/><g fill="#888"><path d="m10.6 15h-1.6v-2.7c0-.1.2-.3.4-.3h.8c.2 0 .4.2.4.3z"/><path d="m11.8 12.7v-.9c0-.5.4-.8.8-.8.5 0 .8.4.8.8 0 .5-.4.8-.8.8h-.8z"/></g></g><g transform="translate(0 1303)"><path d="m20 4.7c0-.9-.5-1.4-1.4-1.6-.2 0-.3 0-.5-.1-.5-.1-1-.1-1.4-.2-1.8-.4-3.5-1.2-5.4-2.5-.4-.1-.7-.3-1.1-.3s-.8.2-1.1.4c-2.5 1.7-4.8 2.6-7.2 2.7-1 .1-1.6.6-1.6 1.6v1.8 5.1c0 .6.1 1.3.2 2 .4 1.6 1.2 3 2.5 4.3 1.7 1.7 3.8 2.9 6.4 3.9.4.2.6.2.8.2s.5-.1.7-.1c.1-.1.3-.1.4-.2.6-.3 1.3-.5 1.9-.9 2.2-1.1 3.8-2.4 5-4 1.1-1.4 1.6-2.9 1.7-4.4 0-.3 0-.6 0-1v-2.8-1.1c.1-1 .1-1.9.1-2.8zm-1.1 3.8v2.9.9c-.1 1.3-.5 2.5-1.5 3.8-1.1 1.5-2.6 2.7-4.6 3.7-.6.3-1.2.6-1.9.8-.1.1-.3.1-.4.2-.1 0-.2.1-.3.1s-.1 0-.2 0c-2.5-.9-4.5-2.1-6-3.7-1.2-1.2-2-2.4-2.3-3.8-.1-.6-.2-1.2-.2-1.7 0-1.7 0-3.4 0-5.1v-1.8c0-.2 0-.4.1-.4 0-.1.2-.2.4-.2 2.6-.1 5-1.1 7.8-2.9.2-.1.4-.2.4-.2.1 0 .2.1.4.2 2 1.4 3.9 2.2 5.8 2.6.5.1 1 .2 1.5.2.2 0 .3 0 .5.1.3 0 .4.2.4.5v2.8z" fill="#0297cf"/><path d="m0 0v6.6c0 .2.1.4.3.4h1.5 2.1 5c.1 0 .2-.2.2-.4v-6.6z" fill="none" mask="url(#h)" stroke="#0297cf" stroke-width="2" transform="translate(6 9)"/><path d="m11 4c0-.1 0-.1 0-.2l-1.7-3.6c0-.1-.1-.2-.2-.2h-7.2c-.1 0-.2.1-.2.2l-1.7 3.6v.2" fill="none" mask="url(#i)" stroke="#0297cf" stroke-width="2" transform="translate(5 6)"/><g fill="#0297cf"><path d="m10.6 15h-1.6v-2.7c0-.1.2-.3.4-.3h.8c.2 0 .4.2.4.3z"/><path d="m11.8 12.7v-.9c0-.5.4-.8.8-.8.5 0 .8.4.8.8 0 .5-.4.8-.8.8h-.8z"/></g></g><path d="m.6 1347.5h2l.4 1.1-1.6 1.6c-.2.2-.2.6 0 .9l2.5 2.5c.2.2.6.2.9 0l1.6-1.6 1.1.4v2c0 .3.3.6.6.6h3.8c.3 0 .6-.3.6-.6v-2l1.1-.4 1.6 1.6c.2.2.6.2.9 0l2.5-2.5c.2-.2.2-.6 0-.9l-1.6-1.6.4-1.1h2c.3 0 .6-.3.6-.6v-3.8c0-.3-.3-.6-.6-.6h-2l-.4-1.1 1.6-1.6c.2-.2.2-.6 0-.9l-2.5-2.5c-.2-.2-.6-.2-.9 0l-1.6 1.6-1.1-.4v-2c0-.3-.3-.6-.6-.6h-3.8c-.3 0-.6.3-.6.6v2l-1.1.4-1.6-1.6c-.2-.2-.6-.2-.9 0l-2.5 2.5c-.2.2-.2.6 0 .9l1.6 1.6-.4 1.1h-2c-.3 0-.6.3-.6.6v3.8c0 .3.3.6.6.6zm.6-3.7h1.9c.3 0 .5-.2.6-.4l.6-1.9c.1-.2 0-.5-.2-.6l-1.4-1.4 1.6-1.6 1.4 1.4c.2.2.4.2.6.2l1.9-.6c.3-.1.4-.3.4-.6v-1.9h2.5v1.9c0 .3.2.5.4.6l1.9.6c.2.1.5 0 .6-.2l1.4-1.4 1.6 1.6-1.4 1.4c-.2.2-.2.4-.2.6l.6 1.9c.1.3.3.4.6.4h1.9v2.5h-1.9c-.3 0-.5.2-.6.4l-.6 1.9c-.1.2 0 .5.2.6l1.4 1.4-1.6 1.6-1.4-1.4c-.2-.2-.4-.2-.6-.2l-1.9.6c-.3.1-.4.3-.4.6v1.9h-2.3v-1.9c0-.3-.2-.5-.4-.6l-1.9-.6c-.2-.1-.5 0-.6.2l-1.4 1.4-1.6-1.6 1.4-1.4c.2-.2.2-.4.2-.6l-.6-1.9c-.1-.3-.3-.4-.6-.4h-2.1zm8.8 3.7c1.4 0 2.5-1.1 2.5-2.5s-1.1-2.5-2.5-2.5-2.5 1.1-2.5 2.5 1.1 2.5 2.5 2.5zm0-3.7c.7 0 1.2.6 1.2 1.2s-.6 1.2-1.2 1.2-1.2-.6-1.2-1.2.5-1.2 1.2-1.2z" fill="#0297cf"/><path d="m.6 1377.5h2l.4 1.1-1.6 1.6c-.2.2-.2.6 0 .9l2.5 2.5c.2.2.6.2.9 0l1.6-1.6 1.1.4v2c0 .3.3.6.6.6h3.8c.3 0 .6-.3.6-.6v-2l1.1-.4 1.6 1.6c.2.2.6.2.9 0l2.5-2.5c.2-.2.2-.6 0-.9l-1.6-1.6.4-1.1h2c.3 0 .6-.3.6-.6v-3.8c0-.3-.3-.6-.6-.6h-2l-.4-1.1 1.6-1.6c.2-.2.2-.6 0-.9l-2.5-2.5c-.2-.2-.6-.2-.9 0l-1.6 1.6-1.1-.4v-2c0-.3-.3-.6-.6-.6h-3.8c-.3 0-.6.3-.6.6v2l-1.1.4-1.6-1.6c-.2-.2-.6-.2-.9 0l-2.5 2.5c-.2.2-.2.6 0 .9l1.6 1.6-.4 1.1h-2c-.3 0-.6.3-.6.6v3.8c0 .3.3.6.6.6zm.6-3.7h1.9c.3 0 .5-.2.6-.4l.6-1.9c.1-.2 0-.5-.2-.6l-1.4-1.4 1.6-1.6 1.4 1.4c.2.2.4.2.6.2l1.9-.6c.3-.1.4-.3.4-.6v-1.9h2.5v1.9c0 .3.2.5.4.6l1.9.6c.2.1.5 0 .6-.2l1.4-1.4 1.6 1.6-1.4 1.4c-.2.2-.2.4-.2.6l.6 1.9c.1.3.3.4.6.4h1.9v2.5h-1.9c-.3 0-.5.2-.6.4l-.6 1.9c-.1.2 0 .5.2.6l1.4 1.4-1.6 1.6-1.4-1.4c-.2-.2-.4-.2-.6-.2l-1.9.6c-.3.1-.4.3-.4.6v1.9h-2.3v-1.9c0-.3-.2-.5-.4-.6l-1.9-.6c-.2-.1-.5 0-.6.2l-1.4 1.4-1.6-1.6 1.4-1.4c.2-.2.2-.4.2-.6l-.6-1.9c-.1-.3-.3-.4-.6-.4h-2.1zm8.8 3.7c1.4 0 2.5-1.1 2.5-2.5s-1.1-2.5-2.5-2.5-2.5 1.1-2.5 2.5 1.1 2.5 2.5 2.5zm0-3.7c.7 0 1.2.6 1.2 1.2s-.6 1.2-1.2 1.2-1.2-.6-1.2-1.2.5-1.2 1.2-1.2z" fill="#888"/><path d="m9.6 1403c0-.2 0-.3.1-.4l2.8-2.8c.2-.2.5-.2.7 0s.2.5 0 .7l-2.6 2.6h1.8c.3 0 .5.2.5.5s-.2.5-.5.5h-2.4v2h2.5c.3 0 .5.2.5.5s-.2.5-.5.5h-2.5v1.5c0 .3-.2.5-.5.5s-.5-.2-.5-.5v-1.5h-2.5c-.3 0-.5-.2-.5-.5s.2-.5.5-.5h2.5v-2h-2.5c-.3 0-.5-.2-.5-.5s.2-.5.5-.5h1.8l-2.6-2.6c-.2-.2-.2-.5 0-.7s.5-.2.7 0l2.8 2.8c.1.1.2.3.1.4zm-.1 11c-5.2 0-9.5-4.3-9.5-9.5s4.3-9.5 9.5-9.5 9.5 4.3 9.5 9.5-4.3 9.5-9.5 9.5zm0-1c4.7 0 8.5-3.8 8.5-8.5s-3.8-8.5-8.5-8.5-8.5 3.8-8.5 8.5 3.8 8.5 8.5 8.5z" fill="#0297cf"/><path d="m9.6 1432c0-.2 0-.3.1-.4l2.8-2.8c.2-.2.5-.2.7 0s.2.5 0 .7l-2.6 2.6h1.8c.3 0 .5.2.5.5s-.2.5-.5.5h-2.4v2h2.5c.3 0 .5.2.5.5s-.2.5-.5.5h-2.5v1.5c0 .3-.2.5-.5.5s-.5-.2-.5-.5v-1.5h-2.5c-.3 0-.5-.2-.5-.5s.2-.5.5-.5h2.5v-2h-2.5c-.3 0-.5-.2-.5-.5s.2-.5.5-.5h1.8l-2.6-2.6c-.2-.2-.2-.5 0-.7s.5-.2.7 0l2.8 2.8c.1.1.2.3.1.4zm-.1 11c-5.2 0-9.5-4.3-9.5-9.5s4.3-9.5 9.5-9.5 9.5 4.3 9.5 9.5-4.3 9.5-9.5 9.5zm0-1c4.7 0 8.5-3.8 8.5-8.5s-3.8-8.5-8.5-8.5-8.5 3.8-8.5 8.5 3.8 8.5 8.5 8.5z" fill="#888"/><path d="m8 1447.9v8 1h1 8c-.5 4-3.9 7-8 7-4.4 0-8-3.6-8-8 0-4.1 3.1-7.5 7-8m1-1.1c-5 0-9 4-9 9s4 9 9 9 9-4 9-9h-9z" fill="#888"/><path d="m11 1446.9c3.6.5 6.5 3.3 7 7h-7zm-1-1v9h9c0-5-4-9-9-9z" fill="#888"/><path d="m8 1470.1v8 1h1 8c-.5 4-3.9 7-8 7-4.4 0-8-3.6-8-8 0-4.1 3.1-7.5 7-8m1-1c-5 0-9 4-9 9s4 9 9 9 9-4 9-9h-9z" fill="#0297cf"/><path d="m11 1469.2c3.6.5 6.5 3.3 7 7h-7zm-1-1.1v9h9c0-4.9-4-9-9-9z" fill="#0297cf"/><path d="m.5 1509.7c-.3 0-.5-.2-.5-.5v-18c0-.3.2-.5.5-.5s.5.2.5.5v18c0 .2-.2.5-.5.5z" fill="#0297cf"/><path d="m18.5 1509.7h-18c-.3 0-.5-.2-.5-.5s.2-.5.5-.5h18c.3 0 .5.2.5.5s-.2.5-.5.5z" fill="#0297cf"/><path d="m17.4 1494.8c0-.3-.2-.5-.5-.5 0 0 0 0-.1 0 0 0 0 0-.1 0h-4.5c-.3 0-.5.2-.5.5s.2.5.5.5h3.5l-4.8 4.8-2.9-2.9c-.2-.2-.5-.2-.7 0v.1l-5.3 5.3c-.2.2-.2.5 0 .7.1.1.2.1.4.1s.3 0 .4-.1l5-5 2.8 2.8s0 .1.1.1c.1.1.2.1.4.1s.3 0 .4-.1l5.1-5.1v3.2c0 .3.2.5.5.5s.5-.2.5-.5v-4.5c-.2.1-.2.1-.2 0z" fill="#0297cf"/><g fill="#888"><path d="m.5 1536.3c-.3 0-.5-.2-.5-.5v-18c0-.3.2-.5.5-.5s.5.2.5.5v18c0 .3-.2.5-.5.5z"/><path d="m18.5 1536.3h-18c-.3 0-.5-.2-.5-.5s.2-.5.5-.5h18c.3 0 .5.2.5.5s-.2.5-.5.5z"/><path d="m17.4 1521.5c0-.3-.2-.5-.5-.5 0 0 0 0-.1 0 0 0 0 0-.1 0h-4.5c-.3 0-.5.2-.5.5s.2.5.5.5h3.5l-4.8 4.8-2.9-2.9c-.2-.2-.5-.2-.7 0v.1l-5.3 5.3c-.2.2-.2.5 0 .7.1.1.2.1.4.1s.3 0 .4-.1l5-5 2.8 2.8s0 .1.1.1c.1.1.2.1.4.1s.3 0 .4-.1l5.1-5.1v3.2c0 .3.2.5.5.5s.5-.2.5-.5v-4.5c-.2 0-.2 0-.2 0z"/><path d="m1.9 1562.4c-.3 0-.5-.2-.5-.5v-6c0-.3.2-.5.5-.5s.5.2.5.5v6c0 .3-.2.5-.5.5z"/><path d="m17.4 1562.4c-.3 0-.5-.2-.5-.5v-6c0-.3.2-.5.5-.5s.5.2.5.5v6c0 .3-.2.5-.5.5z"/><path d="m1.9 1551.9 3.3 3h-4.2v-3zm.4-1h-2.3v5h7.8z"/><path d="m18 1551.9v3h-4.1l3.2-3zm1-1h-2.3l-5.4 5h7.7z"/><path d="m15.6 1551.9-6.1 5.6-6.1-5.6zm2.6-1h-17.4l8.7 8z"/><path d="m13.4 1551.3h-.1c-.2-.1-.3-.3-.2-.4 0 0 .2-.6-.3-1.2-.4-.5-.4-1-.3-1.4h-.3c.1.4.1 1-.3 1.4-.5.5-.3 1.2-.3 1.2.1.2 0 .4-.2.4-.2.1-.4 0-.4-.2 0 0-.3-1 .4-1.9.4-.5.1-1.1 0-1.1-.1-.1-.1-.2 0-.4s.2-.2.3-.2h1.3c.1 0 .2.1.3.2s.1.2 0 .4c0 0-.4.6 0 1.1.8.9.4 1.8.4 1.9s-.2.2-.3.2z"/><path d="m12.1 1548s-.2-.7.2-1.3c.3-.6 1-1 1.9-1.2l.1.4c-.8.2-1.4.6-1.6 1-.3.5-.2 1-.2 1z"/><path d="m12.6 1546.8c-.1 0-.2-.1-.2-.1 0-.1-.1-.3-.3-.4-.1 0-.2-.2-.1-.3 0-.1.2-.1.3-.1.4.2.5.6.5.6 0 .2-.1.3-.2.3z"/><path d="m13.9 1546.5c-.1 0-.1 0-.2-.1 0 0-.1-.2-.4-.2-.1 0-.2-.1-.1-.2 0-.1.1-.2.2-.1.4.1.6.4.6.4.1.1 0 .2 0 .3 0-.1-.1-.1-.1-.1z"/><circle clip-rule="evenodd" cx="14.5" cy="1545.5" fill-rule="evenodd" r=".4"/></g><path d="m1.9 1584.7c-.3 0-.5-.2-.5-.5v-6c0-.3.2-.5.5-.5s.5.2.5.5v6c0 .3-.2.5-.5.5z" fill="#0297cf"/><path d="m17.4 1584.7c-.3 0-.5-.2-.5-.5v-6c0-.3.2-.5.5-.5s.5.2.5.5v6c0 .3-.2.5-.5.5z" fill="#0297cf"/><path d="m1.9 1574.1 3.3 3h-4.2v-3zm.4-1h-2.3v5h7.8z" fill="#0297cf"/><path d="m18 1574.1v3h-4.1l3.2-3zm1-1h-2.3l-5.4 5h7.7z" fill="#0297cf"/><path d="m15.6 1574.1-6.1 5.6-6.1-5.6zm2.6-1h-17.4l8.7 8z" fill="#0297cf"/><path d="m13.4 1573.6h-.1c-.2-.1-.3-.3-.2-.4 0 0 .2-.6-.3-1.2-.4-.5-.4-1-.3-1.4h-.3c.1.4.1 1-.3 1.4-.5.5-.3 1.2-.3 1.2.1.2 0 .4-.2.4-.2.1-.4 0-.4-.2 0 0-.3-1 .4-1.9.4-.5.1-1.1 0-1.1-.1-.1-.1-.2 0-.4s.2-.2.3-.2h1.3c.1 0 .2.1.3.2s.1.2 0 .4c0 0-.4.6 0 1.1.8.9.4 1.8.4 1.9s-.2.2-.3.2z" fill="#0297cf"/><path d="m12.1 1570.2s-.2-.7.2-1.3c.3-.6 1-1 1.9-1.2l.1.4c-.8.2-1.4.6-1.6 1-.3.5-.2 1-.2 1z" fill="#0297cf"/><path d="m12.6 1569.1c-.1 0-.2-.1-.2-.1 0-.1-.1-.3-.3-.4-.1 0-.2-.2-.1-.3 0-.1.2-.1.3-.1.4.2.5.6.5.6 0 .1-.1.2-.2.3z" fill="#0297cf"/><path d="m13.9 1568.8c-.1 0-.1 0-.2-.1 0 0-.1-.2-.4-.2-.1 0-.2-.1-.1-.2 0-.1.1-.2.2-.1.4.1.6.4.6.4.1.1 0 .2 0 .3 0-.1-.1-.1-.1-.1z" fill="#0297cf"/><circle clip-rule="evenodd" cx="14.5" cy="1567.8" fill="#0297cf" fill-rule="evenodd" r=".4"/></svg>