<?xml version="1.0" encoding="UTF-8"?>
<svg width="537px" height="310px" viewBox="0 0 537 310" version="1.1" xmlns="http://www.w3.org/2000/svg" xmlns:xlink="http://www.w3.org/1999/xlink">
    <!-- Generator: Sketch 41.1 (35376) - http://www.bohemiancoding.com/sketch -->
    <title>Group 17</title>
    <desc>Created with Sketch.</desc>
    <defs>
        <path d="M12.3952454,22.1109155 C9.34723422,21.6932816 6.29922306,20.0227461 4.67361711,18.3522106 C4.06401488,17.7257598 3.65761339,17.5169429 3.86081414,17.7257598 C4.06401488,17.9345767 4.26721562,18.1433937 4.26721562,18.1433937 C3.86081414,18.1433937 2.03200744,15.4287735 1.42240521,13.9670549 C0.203200744,11.8788855 -9.32587341e-13,10.417167 -9.32587341e-13,8.74663145 C0.203200744,7.07609595 0.812802976,3.31739106 1.42240521,1.64685555 C1.62560595,0.393953922 1.42240521,0.60277086 6.9088253,0.185136984 C11.9888439,-0.232496893 14.6304536,-0.0236799547 21.9456804,1.64685555 L27.8385019,2.69094024 L33.9345242,2.89975718 C40.0305466,2.89975718 34.950528,7.28491289 34.137725,7.28491289 C33.5281228,7.28491289 31.6993161,8.32899758 31.6993161,8.32899758 C31.6993161,8.32899758 31.2929146,8.95544839 30.8865131,9.58189921 C30.4801116,10.20835 29.6673086,11.6700686 29.2609071,12.7141533 C28.2449034,15.0111396 27.025699,17.3081259 26.6192975,17.3081259 C26.4160967,17.3081259 26.4160967,17.3081259 26.4160967,17.5169429 C26.6192975,17.5169429 26.212896,18.1433937 25.6032937,18.5610276 C25.1968923,19.1874784 24.7904908,19.3962953 24.9936915,19.1874784 C24.9936915,18.9786614 24.7904908,19.1874784 24.3840893,19.6051122 C23.774487,20.44038 21.3360781,21.4844647 19.7104722,21.9020986 C18.288067,22.3197324 14.0208513,22.3197324 12.3952454,22.1109155 Z" id="path-1"></path>
        <mask id="mask-2" maskContentUnits="userSpaceOnUse" maskUnits="objectBoundingBox" x="0" y="0" width="36.8938492" height="22.2480778" fill="white">
            <use xlink:href="#path-1"></use>
        </mask>
        <path d="M42.7850959,22.1109155 C39.7370848,21.6932816 36.6890736,20.0227461 35.0634677,18.3522106 C34.4538654,17.7257598 34.0474639,17.5169429 34.2506647,17.7257598 C34.4538654,17.9345767 34.6570662,18.1433937 34.6570662,18.1433937 C34.2506647,18.1433937 32.421858,15.4287735 31.8122558,13.9670549 C30.5930513,11.8788855 30.3898506,10.417167 30.3898506,8.74663145 C30.5930513,7.07609595 31.2026535,3.31739106 31.8122558,1.64685555 C32.0154565,0.393953922 31.8122558,0.60277086 37.2986758,0.185136984 C42.3786944,-0.232496893 45.0203041,-0.0236799547 52.3355309,1.64685555 L58.2283525,2.69094024 L64.3243748,2.89975718 C70.4203971,2.89975718 65.3403785,7.28491289 64.5275755,7.28491289 C63.9179733,7.28491289 62.0891666,8.32899758 62.0891666,8.32899758 C62.0891666,8.32899758 61.6827651,8.95544839 61.2763636,9.58189921 C60.8699622,10.20835 60.0571592,11.6700686 59.6507577,12.7141533 C58.634754,15.0111396 57.4155495,17.3081259 57.009148,17.3081259 C56.8059473,17.3081259 56.8059473,17.3081259 56.8059473,17.5169429 C57.009148,17.5169429 56.6027465,18.1433937 55.9931443,18.5610276 C55.5867428,19.1874784 55.1803413,19.3962953 55.3835421,19.1874784 C55.3835421,18.9786614 55.1803413,19.1874784 54.7739398,19.6051122 C54.1643376,20.44038 51.7259287,21.4844647 50.1003227,21.9020986 C48.6779175,22.3197324 44.4107019,22.3197324 42.7850959,22.1109155 Z" id="path-3"></path>
        <mask id="mask-4" maskContentUnits="userSpaceOnUse" maskUnits="objectBoundingBox" x="0" y="0" width="36.8938492" height="22.2480778" fill="white">
            <use xlink:href="#path-3"></use>
        </mask>
    </defs>
    <g id="统计报表（管理员-所有分店）" stroke="none" stroke-width="1" fill="none" fill-rule="evenodd">
        <g id="Group-17">
            <rect id="Rectangle-9" fill="#EEEEEE" x="0" y="0" width="537" height="221" rx="18"></rect>
            <polygon id="Path-19" fill="#EEEEEE" points="195.859375 200 153 243.398438 252.667969 204.628906"></polygon>
            <g id="Group-16" transform="translate(26.000000, 96.000000)">
                <g id="boy1" transform="translate(0.000000, 85.558974)">
                    <path d="M56.547367,121.82854 C51.9290464,120.898551 44.3358779,122.758528 39.7175573,119.038573 L38.3165013,115.553839 L37.870229,105.08874 C38.7938931,94.8588629 42.4770489,69.9918304 40.6297207,64.4118973 C39.7060566,62.5519196 36.0229008,74.3991081 34.1755725,79.0490524 C33.2519084,81.839019 28.6121649,87.4652699 25.8411725,92.1152141 C23.0701802,95.8351695 21.7541392,100.226052 21.7541392,100.226052 C21.7541392,103.016019 19.6111753,107.569921 17.7638471,110.359888 C16.8401829,111.289877 19.2321032,109.952337 17.3847749,109.952337 C15.5374467,109.952337 12.0076336,113.45864 13.8549618,111.598662 C14.778626,109.738685 14.778626,109.738685 12.9312977,110.668673 C10.1603053,113.45864 11.2621176,113.160753 7.56746109,109.440797 C6.05997868,107.417058 2.77099237,107.466388 1.37602502,102.250185 C-0.0189423306,97.0339833 0.583818283,83.1258296 4.61832061,64.1692308 L6.46564885,53.0093645 L3.69465649,50.219398 C2.35337873,48.8689359 1.97633692,48.466544 2.05569388,45.4014382 C2.13505084,42.3363323 3.02401761,43.1128828 2.77099237,40.8200624 C2.77099237,38.0038739 1.56093151,35.9315967 1.37602502,33.9809208 C1.19111852,32.0302449 1.48307132,27.4364875 2.77099237,27.4364875 C3.69465649,27.4364875 4.18354902,28.3664764 5.10721314,27.4364875 C6.03087727,27.4364875 8.67739146,24.736432 10.5247197,24.736432 L12.9312977,23.3714191 C12.9312977,23.3714191 14.3802245,24.3587797 14.778626,23.8064431 C14.9693771,23.5419893 15.5580049,26.2829983 15.7022901,25.5796885 C15.9553164,24.3463261 16.6259542,19.2109904 16.6259542,19.2109904 C17.5496183,13.6310573 21.2442748,3.71995541 24.0152672,1.8599777 C25.8625954,0.929988852 26.7596501,0.284718267 27.6833142,1.21470712 C30.4543066,2.14469597 30.480916,3.71995541 26.7862595,13.0198439 C25.8625954,17.6697882 24.0152672,24.1797101 23.0916031,26.9696767 L23.0916031,31.619621 L24.9389313,30.6896321 C27.7099237,27.8996656 33.2519084,28.8296544 34.1755725,30.6896321 C21.865214,44.228962 35.0992366,33.1124619 39.7175573,30.3224954 C42.4885496,28.4625177 47.349287,26.5096773 47.349287,25.5796885 C47.349287,24.6496996 52.2109263,20.007248 55.9055828,17.2172814 C58.6765752,15.3573037 59.1145038,12.0898551 57.2671756,11.1598662 C56.3435115,10.2298774 52.648855,7.43991081 52.648855,7.43991081 C52.648855,7.43991081 60.0102918,12.0898551 68.0133401,12.0898551 C76.0163885,12.0898551 84.0534351,7.43991081 84.0534351,7.43991081 C84.0534351,7.43991081 79.4351145,11.1598662 78.5114504,11.1598662 C75.740458,11.1598662 76.6826135,19.1465088 81.3009341,21.9364753 C83.1482623,22.8664642 89.5954198,22.3197324 93.2900763,24.1797101 C104.374046,30.6896321 107.145038,35.3395764 112.687023,56.72932 C114.534351,63.2392419 115.458015,69.7491639 116.381679,72.5391304 C116.381679,75.329097 115.935633,78.8301781 117.782961,80.6901558 C119.630289,81.6201446 120.076336,80.5979743 119.152672,81.5279631 C118.229008,82.457952 116.859297,83.5623137 117.782961,84.4923026 C118.706625,85.4222914 118.771119,92.1152141 116.923791,92.1152141 C116.923791,91.1852253 112.687023,94.8588629 109.916031,97.6488294 L103.963178,102.250185 L106.221374,106.018729 C107.145038,107.878707 108.068702,107.878707 108.068702,108.808696 C108.068702,109.738685 108.992366,109.738685 110.839695,110.668673 C112.687023,111.598662 112.687023,112.528651 112.687023,115.318618 C112.687023,120.898551 111.763359,121.82854 106.221374,121.82854 C103.450382,121.82854 102.526718,121.82854 102.526718,119.968562 C101.603053,118.108584 105.491192,103.228763 100.872872,106.018729 C96.2545511,109.738685 88.7046793,122.597324 85.0100228,122.597324 C83.1626946,122.597324 82.4374739,126.919411 82.4374739,123.199456 L79.5916142,121.82854 L64.79585,122.597324 C59.2538652,122.597324 63.4013336,112.528651 63.4013336,115.318618 C63.4013336,120.898551 66.7076724,123.688517 56.547367,121.82854 Z M24.4770992,50.4622848 C24.4770992,49.2084469 27.1471152,45.3618533 25.8411725,46.6156912 C24.4456592,47.2856086 22.4159315,49.2760414 20.5592714,50.219398 C18.9409498,51.0416563 17.3847749,50.6736828 17.3847749,53.0093645 C14.7728897,65.5477433 16.6414435,71.7775287 20.5592714,61.7468257 C23.1711566,56.7314742 24.4770992,51.7161226 24.4770992,50.4622848 Z" id="Shape" fill="#FDDAB3"></path>
                    <path d="M39.7175573,30.3224954 C42.4885496,28.4625177 47.349287,26.5096773 47.349287,25.5796885 C47.349287,24.6496996 52.2109263,20.007248 55.9055828,17.2172814 C58.6765752,15.3573037 59.1145038,12.0898551 57.2671756,11.1598662 C56.3435115,10.2298774 52.648855,7.43991081 52.648855,7.43991081 C52.648855,7.43991081 60.0102918,12.0898551 68.0133401,12.0898551 C76.0163885,12.0898551 84.0534351,7.43991081 84.0534351,7.43991081 C84.0534351,7.43991081 79.4351145,11.1598662 78.5114504,11.1598662 C75.740458,11.1598662 76.6826135,19.1465088 81.3009341,21.9364753 C83.1482623,22.8664642 89.5954198,22.3197324 93.2900763,24.1797101 C98.4701201,27.2220932 90.1326346,49.0772587 75.9551378,50.219398 C59.7964156,51.5211449 37.2575882,31.8085835 39.7175573,30.3224954 Z" id="Shape" fill="#FDCA9C"></path>
                    <g id="Group-14" transform="translate(53.572519, 31.619621)" fill="#FFFFFF">
                        <path d="M8.48075203,7.90308886 C8.48075203,7.90308886 11.3293177,10.393352 20.8780564,10.393352 C30.4267951,10.393352 36.5713263,0.581243032 36.5713263,0.581243032 L37.8305403,84.6998245 C37.8305403,84.6998245 19.308549,92.1342862 6.92387285,86.5107598 C-5.46080332,80.8872335 3.52688156,37.7244892 3.52688156,37.7244892 L8.48075203,7.90308886 Z" id="Path-20"></path>
                    </g>
                    <path d="M102.789881,88.92587 L103.883349,88.136878 L106.916152,77.8733975 L106.753789,67.1238072 C106.753789,67.1238072 105.09205,64.689852 104.4877,64.689852 C103.883349,64.689852 99.1547572,66.2269673 99.1547572,66.5078258 C99.1547572,66.7886842 99.6213248,71.7346992 99.6213248,72.1872059 C99.6213248,72.6397127 101.065678,78.7679669 101.065678,79.585567 C101.065678,80.403167 101.392658,83.2162925 101.392658,83.2162925 L101.980096,84.8594393 C101.980096,84.8594393 102.298057,85.4561216 102.298057,85.8566344 C102.298057,86.2571471 102.621204,87.593325 102.621204,87.593325 L102.789881,88.92587 Z" id="Path" fill="#FFFFFF"></path>
                    <path d="M51.7251908,125.548495 C45.259542,123.688517 36.9465649,117.178595 37.870229,115.318618 L37.870229,91.1389075 L38.7938931,67.8891862 L36.0229008,75.329097 C34.1755725,79.0490524 31.4045802,85.5589744 28.6335878,89.2789298 C23.0916031,98.5788183 23.0916031,98.5788183 22.1679389,103.228763 C21.2442748,107.878707 17.5496183,112.528651 15.7022901,112.528651 C13.8549618,112.528651 12.9297192,114.232193 12.9297192,112.084545 C10.2699003,112.084545 10.1603053,113.45864 7.38931298,111.598662 C6.46564885,109.738685 6.46564885,109.738685 9.23664122,109.738685 C15.7022901,107.878707 16.6259542,102.298774 16.6259542,83.6989967 L16.6259542,68.819175 L19.3969466,59.5192865 C21.2442748,53.9393534 24.0152672,48.3594203 24.0152672,47.4294314 C24.9389313,45.5694537 25.8625954,43.709476 26.7862595,41.8494983 C27.7099237,37.1995541 30.480916,34.4095875 38.7938931,29.7596433 C42.4885496,27.8996656 45.259542,25.109699 46.1832061,23.2497213 C48.0305344,20.4597547 56.3435115,13.9498328 58.1908397,13.9498328 C59.1145038,13.9498328 59.1145038,20.4597547 58.1908397,23.2497213 C56.3435115,24.1797101 57.2671756,25.109699 60.0381679,27.8996656 C63.7328244,29.7596433 64.6564885,31.619621 66.5038168,38.1295429 C68.351145,45.5694537 68.351145,47.4294314 69.2748092,79.0490524 C69.2748092,97.6488294 69.2748092,115.318618 68.351145,119.968562 L68.351145,127.408473 L62.8091603,127.408473 C59.1145038,127.408473 54.4961832,126.478484 51.7251908,125.548495 Z M80.3587786,82.7690078 L80.3587786,30.6896321 C81.2824427,24.1797101 81.2824427,24.1797101 79.4351145,23.2497213 C76.6641221,22.3197324 76.6641221,21.3897436 76.6641221,18.599777 C76.6641221,15.8098105 76.6641221,13.9498328 77.5877863,13.9498328 C79.4351145,13.9498328 84.9770992,17.6697882 85.9007634,19.5297659 C86.8244275,20.4597547 89.5954198,22.3197324 92.3664122,24.1797101 C99.7557252,27.8996656 103.450382,30.6896321 105.29771,36.2695652 C108.068702,41.8494983 111.763359,53.9393534 114.534351,66.9591973 C116.381679,75.329097 117.305344,77.1890747 119.152672,79.0490524 C120.076336,79.9790412 121,80.9090301 120.076336,80.9090301 C120.076336,81.839019 119.152672,82.7690078 120.076336,84.6289855 C120.076336,86.4889632 120.076336,88.3489409 119.152672,88.3489409 C119.152672,89.2789298 118.229008,90.2089186 118.229008,91.1389075 C118.229008,92.9988852 117.305344,92.9988852 113.610687,90.2089186 C110.839695,89.2789298 107.145038,88.3489409 106.221374,88.3489409 L103.450382,88.3489409 L103.450382,102.298774 C103.450382,115.318618 103.450382,115.318618 100.679389,118.108584 C98.8320611,119.968562 86.8244275,125.548495 83.129771,126.478484 L80.3587786,127.408473 L80.3587786,82.7690078 Z M104.374046,75.7199077 C104.374046,66.6991697 104.374046,63.0908745 103.450382,66.6991697 C102.526718,70.3074649 102.526718,88.3489409 103.450382,88.3489409 C104.374046,88.3489409 104.374046,82.9364981 104.374046,75.7199077 Z" id="Shape" fill="#0482B1"></path>
                    <path d="M49.8311833,125.326215 C44.2891985,123.466237 36.9465649,117.178595 37.870229,115.318618 C37.870229,114.388629 37.870229,104.158751 38.7938931,92.9988852 L38.7938931,70.6791527 L38.7938931,68.819175 C38.7938931,67.8891862 36.9465649,70.6791527 36.0229008,75.329097 C34.1755725,79.0490524 30.480916,85.5589744 27.7099237,90.2089186 L24.0152672,97.6488294 L23.0916031,93.928874 C22.1679389,89.2789298 20.3206107,84.6289855 18.4732824,84.6289855 C16.6259542,83.6989967 16.6259542,81.839019 16.6259542,75.329097 C16.6259542,67.8891862 16.6259542,66.0292085 20.3206107,58.5892977 C22.1679389,53.9393534 24.9389313,46.4994426 26.7862595,42.7794872 C29.5572519,36.2695652 30.480916,35.3395764 36.9465649,30.6896321 C41.5648855,27.8996656 45.259542,26.0396878 45.259542,26.0396878 C45.259542,26.9696767 47.1068702,30.6896321 48.0305344,35.3395764 L50.8015267,43.709476 L54.4961832,38.1295429 C57.2671756,31.619621 60.0381679,27.8996656 61.8854962,28.8296544 C63.7328244,29.7596433 68.0223603,33.3367854 69.8696885,44.4966517 C71.1221374,52.3470654 73.8931298,59.5192865 73.8931298,82.7690078 C73.8931298,98.5788183 69.2748092,115.318618 68.351145,119.968562 L68.351145,127.408473 L62.8091603,127.408473 C59.1145038,127.408473 52.6021756,126.256204 49.8311833,125.326215 Z M80.3587786,116.248606 L80.3587786,69.7491639 C80.3587786,50.219398 80.3587786,32.5496098 81.2824427,30.6896321 L82.2061069,26.0396878 L85.9007634,32.5496098 C87.7480916,36.2695652 90.519084,39.0595318 90.519084,39.0595318 C90.519084,38.1295429 89.5954198,34.4095875 89.5954198,30.6896321 C88.6717557,26.9696767 87.858363,22.0920032 87.858363,21.1620144 C88.7820271,21.1620144 98.8320611,27.8996656 101.603053,29.7596433 C105.29771,33.4795987 109.797415,41.3447705 112.568408,56.2245921 C114.415736,63.6645029 116.436702,71.9397236 116.436702,73.7997013 C117.360366,77.5196567 116.381679,77.1890747 114.534351,76.2590858 C113.610687,75.329097 110.839695,75.329097 108.068702,75.329097 L104.374046,76.2590858 L104.374046,68.819175 C104.374046,64.004848 104.000611,66.0292085 103.076947,68.819175 C102.565279,70.7783727 103.450382,71.4281843 103.450382,90.9579502 L103.450382,115.156959 C103.450382,115.156959 101.848825,117.440183 101.046735,118.08429 C100.244645,118.728397 97.0181074,120.322303 97.0181074,120.322303 C94.247115,123.112269 79.4527038,128.193605 79.4527038,128.193605 L80.3587786,116.248606 Z M107.145038,82.7690078 C105.29771,81.839019 106.221374,81.839019 108.992366,81.839019 C111.763359,80.9090301 114.534351,80.9090301 115.458015,81.839019 C116.381679,82.7690078 116.381679,82.7690078 113.610687,82.7690078 L109.916031,82.7690078 C108.992366,83.6989967 108.068702,83.6989967 107.145038,82.7690078 Z" id="Shape" fill="#0297CF"></path>
                </g>
                <g id="Group-13" transform="translate(28.633588, 0.000000)">
                    <g id="beauti" transform="translate(0.000000, 0.679039)">
                        <g id="Group" transform="translate(4.618321, 11.159866)" fill="#FDD8AF">
                            <path d="M39.5331677,74.5007991 L41.4378386,72.5905222 L34.7714903,72.5905222 L28.1051419,72.5905222 L30.0098129,74.5007991 C33.8191548,76.411076 35.7238257,77.3662144 39.5331677,74.5007991 Z" id="Shape"></path>
                            <path d="M71.9125739,7.6265763 C77.6265868,25.8625562 71.2901405,43.4334835 70.0776032,45.3399697 C69.8351374,45.7212014 69.8644866,49.3171491 69.5511837,50.4357439 C68.5242558,54.1022152 67.2078231,60.4540391 66.1985611,61.1288608 C65.8070618,61.3251866 65.5889361,62.7273652 62.3892191,66.8596915 C60.8306023,69.465032 60.2690228,73.2074305 57.7829397,76.5361049 C55.7119341,79.3090224 51.740044,81.7948341 50.0088579,83.0970451 C47.1518515,84.0521836 47.2417216,84.7777636 43.1213137,87.349764 C39.0009057,89.9217644 27.6874035,93.512879 31.5376275,79.3000021 C35.6235324,64.2171228 71.9125739,7.6265763 71.9125739,7.6265763 Z" id="Path"></path>
                            <path d="M18.5817871,80.2316298 C16.8551821,78.1536055 12.7803891,75.7497355 10.5515029,72.0252472 C7.35014212,66.6757452 5.99317723,59.5903966 4.26581641,55.1928322 C3.92408026,54.3228305 -3.13655195,34.5378401 3.69231211,25.8625562 C4.38831193,24.9783687 30.3995986,8.31580439 42.7304814,0.543559352 C44.9204486,-0.836792905 54.7634798,2.37189021 62.1471552,5.03487046 C66.8301869,6.72384241 71.7881463,7.68666702 71.9125739,7.6265763 C79.6456485,3.89198726 46.4422762,51.3058846 39.5948831,79.3000021 C34.9513158,98.2842444 23.3434645,85.007322 18.5817871,80.2316298 Z" id="Path"></path>
                        </g>
                        <path d="M48.9991797,48.2593682 C50.9038507,45.3939528 54.7131926,43.4836759 58.5225345,43.4836759 C61.3795409,43.4836759 64.2365474,45.3939528 64.2365474,46.3490913 C64.2365474,47.3042297 63.2842119,47.3042297 62.3318764,46.3490913 C59.47487,44.4388144 55.6655281,45.3939528 51.8561862,47.3042297 C48.0468443,49.2145066 48.0468443,49.2145066 48.9991797,48.2593682 Z" id="Combined-Shape" fill="#000000"></path>
                        <path d="M18.5182637,48.2593682 C20.4229347,45.3939528 24.2322766,43.4836759 28.0416185,43.4836759 C30.8986249,43.4836759 33.7556314,45.3939528 33.7556314,46.3490913 C33.7556314,47.3042297 32.8032959,47.3042297 31.8509604,46.3490913 C28.993954,44.4388144 25.184612,45.3939528 21.3752701,47.3042297 C17.5659282,49.2145066 17.5659282,49.2145066 18.5182637,48.2593682 Z" id="Combined-Shape" fill="#000000" transform="translate(25.872410, 46.185215) scale(-1, 1) translate(-25.872410, -46.185215) "></path>
                        <path d="M6.89105564,57.568968 C4.45891836,54.507979 2.22945918,48.3860011 0.405356214,39.8152319 C0,37.3664407 0,36.550177 0,33.8973199 C0,27.36721 1.21606864,21.449298 3.44552782,17.1639134 C5.674987,12.6744629 8.91783671,9.40940801 13.3767551,7.57281462 C16.4169267,6.34841902 21.6865575,5.73622123 25.5374415,6.34841902 L26.9561882,6.55248495 L28.1722569,5.53215529 C31.4151066,2.67523224 35.2659906,1.04270479 39.9275871,0.226441057 C46.4132865,-0.589822671 56.3445138,0.838638854 62.2221789,3.89962784 C65.8703848,5.73622123 70.7346594,9.20534207 73.5721529,12.0622651 C79.8551742,18.388309 82.8953458,25.5306166 82.8953458,34.1013858 C82.8953458,41.2436934 79.0212365,48.3860011 74.7649962,56.3445724 L74.1569619,57.568968 L73.9542838,54.0998472 C73.9542838,51.44699 73.0306197,50.0185285 72.8279416,48.7941329 C72.6252635,47.7738033 72.4225854,46.9575395 72.2199073,46.9575395 C72.2199073,46.9575395 71.814551,47.3656714 71.2065167,47.7738033 C68.9770575,49.4063307 69.1132345,50.2225944 68.099844,49.8144626 C67.8971659,49.6103966 67.0864535,49.2022648 66.4784191,48.7941329 C65.6677067,48.3860011 64.8569943,47.9778692 64.4516381,47.5697373 C64.24896,47.3656714 63.6409256,47.1616055 63.2355694,47.1616055 C62.8302132,47.1616055 62.8302132,47.1616055 63.0328913,46.9575395 C63.4382475,46.9575395 63.4382475,46.9575395 62.8302132,46.5494077 C61.2087883,45.3250121 56.74987,41.0396275 54.1150546,38.1827044 C52.4936297,36.3461111 51.2775611,34.9176495 51.074883,34.9176495 C51.074883,34.9176495 51.074883,34.9176495 54.7230889,40.6314956 C56.9525481,43.8965505 58.3712948,45.7331439 58.573973,45.7331439 C58.7766511,45.7331439 58.7766511,45.7331439 58.573973,45.9372099 C58.3712948,45.9372099 59.1820073,47.5697373 60.600754,49.6103966 L61.2087883,50.4266604 L59.5873635,50.4266604 C58.7766511,50.2225944 56.9525481,50.0185285 55.5338013,49.6103966 C54.1150546,49.4063307 52.898986,49.2022648 52.6963078,49.2022648 C52.4936297,49.4063307 52.2909516,49.2022648 52.2909516,49.2022648 C52.2909516,49.2022648 51.2775611,48.7941329 50.2641706,48.590067 C41.3463338,45.9372099 30.199038,39.4071 22.2945918,31.8566605 L20.6731669,30.428199 L19.2544202,31.2444627 C17.6329953,32.0607265 14.9981799,34.5095177 13.9847894,36.3461111 C12.7687207,38.1827044 11.5526521,40.8355616 10.7419397,43.2843527 C10.3365835,44.5087483 9.93122725,45.3250121 9.93122725,45.529078 L10.5392616,45.529078 L11.1472959,45.529078 L10.5392616,45.7331439 C9.93122725,45.7331439 9.72854914,45.9372099 9.32319293,47.7738033 C8.91783671,49.8144626 8.5124805,52.6713856 8.10712428,56.5486383 L7.70176807,58.5892977 L6.89105564,57.568968 Z" id="Path" fill="#000000"></path>
                    </g>
                    <g id="Group-12" transform="translate(41.383350, 59.864380) rotate(1.000000) translate(-41.383350, -59.864380) translate(7.383350, 48.364380)" stroke="#4E4E4E" stroke-width="6">
                        <use id="Path" mask="url(#mask-2)" xlink:href="#path-1"></use>
                        <use id="Path" mask="url(#mask-4)" transform="translate(48.836775, 11.124039) scale(-1, 1) translate(-48.836775, -11.124039) " xlink:href="#path-3"></use>
                    </g>
                    <path d="M29.8596853,60.254993 C27.8833252,57.6120903 24.5893917,56.9513646 20.6366716,58.272816 C19.3190982,58.9335417 18.0015248,59.5942673 17.3427381,59.5942673 C17.3427381,58.9335417 17.3427381,58.9335417 18.0015248,58.9335417 C18.6603115,58.9335417 18.6603115,58.272816 18.0015248,57.6120903 C17.3427381,56.290639 18.0015248,55.6299133 19.3190982,56.9513646 C19.3190982,55.6299133 19.3190982,55.6299133 19.9778849,56.290639 C20.6366716,56.290639 21.2954583,56.290639 21.2954583,55.6299133 C21.2954583,54.9691876 21.2954583,54.9691876 21.954245,55.6299133 C22.6130317,55.6299133 23.9306051,56.290639 24.5893917,55.6299133 C25.9069651,55.6299133 29.8596853,56.9513646 31.1772587,59.5942673 C32.4948321,61.5764444 31.8360454,62.23717 29.8596853,60.254993 Z" id="Path" fill="#000000"></path>
                    <path d="M61.2642655,60.254993 C59.2879054,57.6120903 55.9939719,56.9513646 52.0412517,58.272816 C50.7236783,58.9335417 49.4061049,59.5942673 48.7473183,59.5942673 C48.7473183,58.9335417 48.7473183,58.9335417 49.4061049,58.9335417 C50.0648916,58.9335417 50.0648916,58.272816 49.4061049,57.6120903 C48.7473183,56.290639 49.4061049,55.6299133 50.7236783,56.9513646 C50.7236783,55.6299133 50.7236783,55.6299133 51.382465,56.290639 C52.0412517,56.290639 52.7000384,56.290639 52.7000384,55.6299133 C52.7000384,54.9691876 52.7000384,54.9691876 53.3588251,55.6299133 C54.0176118,55.6299133 55.3351852,56.290639 55.9939719,55.6299133 C57.3115453,55.6299133 61.2642655,56.9513646 62.5818389,59.5942673 C63.8994122,61.5764444 63.2406255,62.23717 61.2642655,60.254993 Z" id="Path" fill="#000000" transform="translate(56.007318, 58.293096) scale(-1, 1) translate(-56.007318, -58.293096) "></path>
                    <path d="M74.2394964,56.7304125 L68.8835394,76.8806625 C68.8835394,76.8806625 76.120917,71.9342765 77.7893641,65.0207158 C79.4578112,58.107155 74.2394964,56.7304125 74.2394964,56.7304125 Z" id="Path-6" fill="#FDCA9C" transform="translate(73.501000, 66.805537) rotate(5.000000) translate(-73.501000, -66.805537) "></path>
                    <path d="M8.65934373,56.7304125 L3.30338668,76.8806625 C3.30338668,76.8806625 10.5407643,71.9342765 12.2092114,65.0207158 C13.8776585,58.107155 8.65934373,56.7304125 8.65934373,56.7304125 Z" id="Path-6" fill="#FDCA9C" transform="translate(7.920847, 66.805537) scale(-1, 1) rotate(5.000000) translate(-7.920847, -66.805537) "></path>
                    <path d="M44.5136877,87.2990707 C45.9225236,86.7474574 46.430528,86.572161 47.6189897,85.5626071 C49.2036053,84.3511425 50.86106,82.820387 51.6533678,81.2051008 C52.6437526,79.5898145 52.4181924,79.1349901 51.8239616,79.1349901 C51.4278077,79.1349901 51.6105137,79.2509632 51.4124368,79.452874 C51.2143598,79.452874 49.6326265,79.8566955 48.0480109,80.2605171 C41.7879089,81.3480275 42.9099037,82.5650051 31.0105112,80.2605171 C28.6335878,79.452874 28.6335878,79.452874 28.6335878,80.0586063 C28.6335878,80.6643386 29.5174225,82.8421326 30.1116533,83.8516865 C31.3288108,85.5626071 31.6802587,85.5626071 34.6627738,87.2990707 C35.2783703,87.403656 37.4449417,88.3266287 39.659941,88.3647208 C41.8749403,88.4028128 43.8345973,87.5649606 44.5136877,87.2990707 Z" id="Path" fill="#FFFFFF"></path>
                    <path d="M30.5551068,84.6289855 C28.9292234,82.4328632 28.4665328,79.8461857 28.6646097,79.8461857 C28.8626867,79.447619 29.8530714,79.8461857 30.0511484,80.4440357 C31.0415331,83.0347189 34.8049951,84.6289855 39.9549957,84.6289855 C45.6992272,84.6289855 50.254997,82.6361523 51.2453818,79.8461857 C51.2453818,79.2483357 51.6415357,79.0490524 52.0376896,79.0490524 C52.6319204,79.0490524 52.4338435,79.8461857 51.4434587,81.6397356 C50.254997,83.4332856 47.8780737,85.8246855 46.0953811,86.6218188 C44.9069194,87.2196687 44.7088425,87.4189521 43.9165347,87.2196687 C41.3415344,86.8211021 39.1626879,86.8211021 35.201149,87.4189521 C34.4088412,87.4189521 31.741032,85.8726413 30.5551068,84.6289855 Z" id="Shape" fill="#714836"></path>
                    <path d="M39.2749315,75.7697029 C39.0768545,75.7697029 38.4826237,75.3658813 38.0864698,74.760149 C37.294162,73.9525059 37.096085,73.9525059 36.5018542,73.9525059 C35.1153156,74.3563275 34.9172386,74.3563275 34.5210847,73.9525059 C33.9268539,73.5486843 34.1249308,72.942952 34.9172386,72.7410412 C35.9076233,72.3372197 36.5018542,72.5391304 37.4922389,73.3467736 C38.6807006,74.5582382 39.2749315,74.760149 40.2653162,74.760149 C41.057624,74.760149 42.8403165,73.9525059 42.8403165,73.5486843 C42.8403165,73.1448628 44.2268551,72.7410412 45.0191629,72.7410412 C46.0095477,72.942952 46.4057016,73.3467736 45.6133938,73.9525059 C45.0191629,74.1544167 45.0191629,74.1544167 44.2268551,73.9525059 C43.4345474,73.5486843 43.4345474,73.5486843 42.8403165,73.9525059 C42.6422396,74.1544167 42.0480087,74.5582382 41.8499318,74.760149 C41.057624,75.7697029 40.0672392,76.1735245 39.2749315,75.7697029 Z" id="Path" fill="#D6964E"></path>
                </g>
                <g id="Group-15" transform="translate(0.000000, 86.488963)" stroke="#FDC88E">
                    <path d="M13.7295816,42.4843247 C13.7295816,42.4843247 12.8194478,37.8870556 18.046629,36.197818 C23.2738102,34.5085805 22.7068933,32.9210604 22.7068933,32.9210604 C22.7068933,32.9210604 23.4781168,28.4550251 27.9097202,28.4550251 C32.3413235,28.4550251 34.0204258,28.4990724 34.0204258,29.6570175 C34.0204258,30.8149626 30.4064997,33.0572893 29.7065355,33.9500422 C29.0065713,34.8427952 26.9319351,38.1209151 26.9319351,39.3810318 C26.9319351,40.6411486 24.8789473,45.8360082 22.8530199,47.4362429 C20.8270925,49.0364776 17.7182953,49.5318965 17.7182953,49.5318965 C17.7182953,49.5318965 16.7544914,53.7667969 16.7544914,55.5895387 C16.7544914,57.4122805 16.3580555,73.2956546 16.3580555,76.9266071 C16.3580555,80.5575597 16.7621586,92.1819663 16.7621586,95.0454964 C16.7621586,97.9090265 14.7141318,105.963783 10.6424328,107.671639 C6.57073369,109.379494 5.64030445,107.597621 4.4803122,106.122717 C3.32031995,104.647813 -0.402299022,101.16762 0.921409083,91.8654613 C2.24511719,82.5633023 2.76016818,66.5141831 4.95612551,61.0518609 C7.15208284,55.5895387 6.40746884,52.6161173 6.40746884,51.4282019 C6.40746884,50.2402864 1.94745199,49.2194783 1.94745199,46.1334411 C1.94745199,43.0474039 2.17566198,40.1684345 3.05512733,40.1684345" id="Path-21"></path>
                    <path d="M22.7274142,32.2864611 C22.7274142,32.2864611 22.7961929,25.6507545 23.631234,22.1435431 C24.466275,18.6363318 27.8925819,9.13618687 28.3830529,7.8102262 C28.873524,6.48426553 29.9013709,1.71126122 28.6529811,0.906602902 C27.4045913,0.101944579 25.1883387,-0.178005679 23.6278514,1.51372941 C22.0673642,3.2054645 19.1966991,7.96053201 18.0486585,12.4635762 C16.900618,16.9666203 16.3700072,18.3454832 16.3700072,23.2363255 C16.3700072,28.1271677 17.2517276,34.6940787 16.2834137,36.7059516" id="Path-22"></path>
                    <path d="M14.1255666,39.3882974 C14.1255666,39.3882974 11.2751968,40.577121 10.197288,37.3637098 C9.11937917,34.1502986 8.6108678,28.0617779 9.70298336,25.6786814 C10.7950989,23.295585 12.2150972,22.4157738 13.43575,22.4157738 C14.6564028,22.4157738 15.2066324,22.4664055 16.272364,26.3882066 C17.3380956,30.3100078 14.1404498,33.032314 16.0739206,36.2103057" id="Path-23"></path>
                    <path d="M11.0638996,39.013214 C11.0638996,39.013214 10.34364,40.3398558 8.83253817,40.3398558 C7.32143629,40.3398558 5.93391057,39.4207652 5.68946431,36.7985872 C5.44501804,34.1764092 4.60659441,28.0356673 5.94067569,26.1087105 C7.27475698,24.1817536 8.79893808,23.5485165 10.8223849,23.9833136" id="Path-24"></path>
                    <path d="M6.65259162,39.4223546 C6.65259162,39.4223546 6.11566675,40.9239966 4.38041396,40.4538339 C2.64516117,39.9836712 2.21196811,39.0981299 1.92467609,36.2529907 C1.63738408,33.4078515 1.04746578,27.0169027 3.22944187,26.6702003 C5.41141795,26.3234979 5.442763,27.2802784 5.442763,27.2802784" id="Path-25"></path>
                    <path d="M115.971488,90.7461143 C115.971488,90.7461143 107.340325,98.4253338 106.206491,99.2756288 C105.072657,100.125924 104.056987,100.757117 104.056987,101.698459 C104.056987,102.6398 105.819526,105.699272 107.274703,106.814533 C108.72988,107.929793 109.189006,109.930086 109.189006,111.094843 C109.189006,112.259599 108.681171,115.037986 107.773743,115.718222 C106.866315,116.398458 108.562105,116.67137 108.562105,116.67137 C108.562105,116.67137 109.765168,114.410879 109.765168,113.688867 C109.765168,112.966854 109.48419,110.561734 109.48419,110.561734 C109.48419,110.561734 109.94918,109.830639 110.863598,110.196186 C111.778017,110.561734 113.023024,111.748287 112.710701,113.086735 C112.398378,114.425184 111.779595,114.92537 111.779595,115.466199 C111.779595,116.007027 112.000589,118.698682 111.432093,119.451573 C110.863598,120.204465 105.025978,120.706014 104.08044,120.395185 C103.134902,120.084356 102.426368,119.501751 102.9439,116.595309 C103.461431,113.688867 102.9439,113.086735 102.9439,113.086735" id="Path-26"></path>
                </g>
            </g>
        </g>
    </g>
</svg>