<?xml version="1.0" encoding="UTF-8"?>
<svg width="71px" height="105px" viewBox="0 0 71 105" version="1.1" xmlns="http://www.w3.org/2000/svg" xmlns:xlink="http://www.w3.org/1999/xlink">
    <!-- Generator: Sketch 41.1 (35376) - http://www.bohemiancoding.com/sketch -->
    <title>Group 7</title>
    <desc>Created with Sketch.</desc>
    <defs>
        <rect id="path-1" x="0" y="0" width="810" height="960"></rect>
        <filter x="-50%" y="-50%" width="200%" height="200%" filterUnits="objectBoundingBox" id="filter-2">
            <feOffset dx="0" dy="1" in="SourceAlpha" result="shadowOffsetOuter1"></feOffset>
            <feGaussianBlur stdDeviation="2" in="shadowOffsetOuter1" result="shadowBlurOuter1"></feGaussianBlur>
            <feColorMatrix values="0 0 0 0 0   0 0 0 0 0   0 0 0 0 0  0 0 0 0.5 0" type="matrix" in="shadowBlurOuter1"></feColorMatrix>
        </filter>
        <path d="M13.984375,187.000444 C13.984375,185.895629 14.8721683,185 15.9851383,185 L797.983612,185 C799.088603,185 799.984375,185.896836 799.984375,186.999752 L799.984375,210.620835 L799.984375,499.506938 C799.984375,500.607676 799.096582,501.5 797.983612,501.5 L15.9851383,501.5 C14.8801472,501.5 13.984375,500.606054 13.984375,499.499556 L13.984375,187.000444 Z" id="path-3"></path>
        <mask id="mask-4" maskContentUnits="userSpaceOnUse" maskUnits="objectBoundingBox" x="0" y="0" width="786" height="316.5" fill="white">
            <use xlink:href="#path-3"></use>
        </mask>
        <path d="M70.4511391,55.088 L70.4511391,14.914044 C70.4511391,6.8301978 63.8501898,0.254791209 55.7399832,0.254791209 L15.4370758,0.254791209 C7.32686925,0.254791209 0.730021118,6.8301978 0.730021118,14.914044 L0.730021118,55.088 C0.730021118,63.1718462 7.32686925,69.7472527 15.4370758,69.7472527 L55.7399832,69.7472527 C63.8522404,69.7472527 70.4511391,63.1718462 70.4511391,55.088 Z" id="path-5"></path>
        <mask id="mask-6" maskContentUnits="userSpaceOnUse" maskUnits="objectBoundingBox" x="0" y="0" width="69.721118" height="69.4924615" fill="white">
            <use xlink:href="#path-5"></use>
        </mask>
    </defs>
    <g id="统计报表（管理员-所有分店）" stroke="none" stroke-width="1" fill="none" fill-rule="evenodd">
        <g id="1.充值0（木有数据）" transform="translate(-496.000000, -347.000000)">
            <g id="Group-2" transform="translate(240.000000, 64.000000)">
                <g id="border" opacity="0.900000036">
                    <use fill="black" fill-opacity="1" filter="url(#filter-2)" xlink:href="#path-1"></use>
                    <use fill="#FFFFFF" fill-rule="evenodd" xlink:href="#path-1"></use>
                </g>
                <use id="Rectangle-1-Copy-3" stroke="#D5DBDD" mask="url(#mask-4)" stroke-width="2" fill="#FFFFFF" xlink:href="#path-3"></use>
            </g>
            <g id="Group-7" transform="translate(496.000000, 349.000000)">
                <g id="cry" transform="translate(0.000000, 33.000000)">
                    <path d="M55.7420339,8.42857143 C59.3306208,8.42857143 62.2507053,11.3371209 62.2507053,14.912 L62.2507053,55.085956 C62.2507053,58.6608352 59.3306208,61.5693846 55.7420339,61.5693846 L15.4391264,61.5693846 C11.8505394,61.5693846 8.93455621,58.6608352 8.93455621,55.085956 L8.93455621,14.912 C8.93455621,11.3371209 11.8505394,8.42857143 15.4391264,8.42857143 L55.7420339,8.42857143 Z" id="Path" fill="#0297CF"></path>
                    <use id="Shape" stroke="#EAEDEE" mask="url(#mask-6)" stroke-width="16" xlink:href="#path-5"></use>
                    <path d="M19.1753581,53.783956 C18.5745261,53.783956 17.9654916,53.6102198 17.4323301,53.2423077 C16.0338065,52.2816484 15.6810997,50.3746374 16.642841,48.9786154 C20.9450441,42.7527253 28.0258388,39.0347692 35.5905801,39.0347692 C43.1553214,39.0347692 50.242268,42.7527253 54.5383193,48.9806593 C55.5000606,50.3766813 55.1432525,52.2857363 53.7447289,53.2443516 C52.3462053,54.202967 50.4288745,53.8514066 49.4671332,52.4553846 C46.3194298,47.8912308 41.1293078,45.1666374 35.5885295,45.1666374 C30.0477512,45.1666374 24.8596798,47.8912308 21.7058245,52.4553846 C21.113195,53.319978 20.1514537,53.783956 19.1753581,53.783956 Z" id="Path" fill="#FFFFFF"></path>
                    <path d="M20.0919857,32.6882857 L26.7052388,28.3612308 C27.5706009,27.7950549 28.0955599,26.8323516 28.0955599,25.8001538 C28.0955599,24.767956 27.5747022,23.8032088 26.7093401,23.237033 L20.1042894,18.912022 C18.6914115,17.9840659 16.7761314,18.3744615 15.8430988,19.7909231 C14.9100661,21.2053407 15.305836,23.1082637 16.7248658,24.0362198 L19.4173314,25.7960659 L16.718714,27.562044 C15.2976335,28.49 14.899813,30.3908791 15.8328457,31.8073407 C16.4254752,32.7046374 17.4077227,33.1910989 18.4084258,33.1910989 C18.9867009,33.1910989 19.571128,33.0296264 20.0919857,32.6882857 Z" id="Path" fill="#FFFFFF"></path>
                    <path d="M55.3360109,31.8093846 C56.2690435,30.394967 55.8773748,28.4940879 54.4542438,27.5640879 L51.7679301,25.8021978 L54.4665475,24.0382637 C55.8835267,23.1082637 56.2813472,21.2073846 55.3483146,19.792967 C54.4193832,18.3785495 52.5123056,17.9861099 51.0912252,18.909978 L44.4738708,23.234989 C43.6085087,23.8011648 43.0876509,24.7659121 43.0876509,25.7981099 C43.0876509,26.8303077 43.6085087,27.7950549 44.4738708,28.3612308 L51.0748202,32.6862418 C51.595678,33.0275824 52.1842062,33.1910989 52.764532,33.1910989 C53.7631845,33.1910989 54.7474826,32.7046374 55.3360109,31.8093846 Z" id="Path" fill="#FFFFFF"></path>
                </g>
                <path d="M53.6230469,33.6357422 C53.6230469,33.6357422 52.7753906,8.30859375 24.6503906,5.09570312" id="Path-27" stroke="#EAEDEE" stroke-width="3"></path>
                <circle id="Oval" fill="#0297CF" cx="22.5" cy="5.5" r="3.5"></circle>
                <path d="M19.3598633,0 C19.3598633,0 15,1.13134766 15,5.78515625 C15,10.4389648 19.3598633,11.5703125 19.3598633,11.5703125" id="Path-28" stroke="#0297CF" stroke-width="3" stroke-linecap="round"></path>
            </g>
        </g>
    </g>
</svg>